<?xml version="1.0" encoding="UTF-8"?>
<svg xmlns="http://www.w3.org/2000/svg" version="1.1" width="500" height="500" viewBox="0 0 500 500"><g transform="scale(23.81)"><g transform="translate(0,0)"><path fill-rule="evenodd" d="M10 0L10 1L8 1L8 7L9 7L9 8L5 8L5 9L3 9L3 8L2 8L2 11L5 11L5 12L3 12L3 13L7 13L7 12L8 12L8 16L9 16L9 18L8 18L8 19L9 19L9 20L10 20L10 21L15 21L15 17L21 17L21 16L19 16L19 15L20 15L20 13L19 13L19 12L21 12L21 10L17 10L17 11L16 11L16 12L17 12L17 14L16 14L16 13L15 13L15 11L14 11L14 8L13 8L13 9L12 9L12 7L13 7L13 4L12 4L12 3L13 3L13 2L12 2L12 0ZM9 2L9 4L10 4L10 5L9 5L9 7L10 7L10 9L8 9L8 10L7 10L7 9L6 9L6 10L5 10L5 11L6 11L6 12L7 12L7 11L8 11L8 12L9 12L9 13L10 13L10 15L12 15L12 14L13 14L13 17L12 17L12 16L10 16L10 17L11 17L11 18L9 18L9 19L10 19L10 20L14 20L14 14L13 14L13 12L14 12L14 11L13 11L13 10L11 10L11 13L10 13L10 12L9 12L9 10L10 10L10 9L11 9L11 7L12 7L12 5L11 5L11 2ZM10 6L10 7L11 7L11 6ZM15 8L15 9L20 9L20 8ZM0 9L0 10L1 10L1 9ZM6 10L6 11L7 11L7 10ZM12 11L12 12L13 12L13 11ZM17 11L17 12L19 12L19 11ZM0 12L0 13L1 13L1 12ZM11 13L11 14L12 14L12 13ZM18 14L18 15L19 15L19 14ZM16 15L16 16L17 16L17 15ZM11 18L11 19L13 19L13 18ZM18 18L18 19L19 19L19 20L18 20L18 21L21 21L21 20L20 20L20 19L21 19L21 18ZM16 19L16 20L17 20L17 19ZM0 0L0 7L7 7L7 0ZM1 1L1 6L6 6L6 1ZM2 2L2 5L5 5L5 2ZM14 0L14 7L21 7L21 0ZM15 1L15 6L20 6L20 1ZM16 2L16 5L19 5L19 2ZM0 14L0 21L7 21L7 14ZM1 15L1 20L6 20L6 15ZM2 16L2 19L5 19L5 16Z" fill="#000000"/></g></g></svg>
