<?xml version="1.0" encoding="UTF-8"?>
<svg xmlns="http://www.w3.org/2000/svg" version="1.1" width="500" height="500" viewBox="0 0 500 500"><g transform="scale(23.81)"><g transform="translate(0,0)"><path fill-rule="evenodd" d="M10 1L10 2L8 2L8 4L9 4L9 6L8 6L8 7L9 7L9 6L10 6L10 8L9 8L9 10L8 10L8 8L6 8L6 9L5 9L5 8L3 8L3 9L4 9L4 10L3 10L3 11L4 11L4 10L6 10L6 11L8 11L8 12L11 12L11 14L10 14L10 13L8 13L8 15L9 15L9 14L10 14L10 16L8 16L8 18L9 18L9 21L10 21L10 20L12 20L12 21L13 21L13 19L12 19L12 18L11 18L11 19L10 19L10 17L11 17L11 16L12 16L12 17L13 17L13 18L14 18L14 20L15 20L15 17L16 17L16 18L18 18L18 20L17 20L17 19L16 19L16 20L17 20L17 21L20 21L20 20L21 20L21 18L19 18L19 16L18 16L18 15L17 15L17 14L18 14L18 13L19 13L19 12L21 12L21 11L19 11L19 8L17 8L17 9L16 9L16 11L17 11L17 14L16 14L16 13L12 13L12 11L10 11L10 9L11 9L11 10L14 10L14 12L15 12L15 9L13 9L13 6L12 6L12 5L13 5L13 3L11 3L11 1ZM9 3L9 4L11 4L11 3ZM10 5L10 6L11 6L11 9L12 9L12 6L11 6L11 5ZM1 9L1 11L2 11L2 9ZM6 9L6 10L7 10L7 9ZM17 9L17 10L18 10L18 9ZM20 9L20 10L21 10L21 9ZM0 12L0 13L3 13L3 12ZM4 12L4 13L7 13L7 12ZM20 13L20 14L19 14L19 15L20 15L20 17L21 17L21 13ZM11 14L11 15L12 15L12 16L13 16L13 17L14 17L14 16L13 16L13 14ZM16 16L16 17L17 17L17 16ZM19 19L19 20L20 20L20 19ZM0 0L0 7L7 7L7 0ZM1 1L1 6L6 6L6 1ZM2 2L2 5L5 5L5 2ZM14 0L14 7L21 7L21 0ZM15 1L15 6L20 6L20 1ZM16 2L16 5L19 5L19 2ZM0 14L0 21L7 21L7 14ZM1 15L1 20L6 20L6 15ZM2 16L2 19L5 19L5 16Z" fill="#000000"/></g></g></svg>
