<?xml version="1.0" encoding="UTF-8"?>
<svg xmlns="http://www.w3.org/2000/svg" version="1.1" width="500" height="500" viewBox="0 0 500 500"><g transform="scale(23.81)"><g transform="translate(0,0)"><path fill-rule="evenodd" d="M8 0L8 3L9 3L9 5L8 5L8 9L7 9L7 8L6 8L6 9L7 9L7 10L4 10L4 9L5 9L5 8L2 8L2 9L1 9L1 10L2 10L2 9L3 9L3 11L2 11L2 12L1 12L1 13L3 13L3 11L5 11L5 12L4 12L4 13L7 13L7 12L6 12L6 11L7 11L7 10L8 10L8 14L9 14L9 11L10 11L10 10L9 10L9 9L10 9L10 8L11 8L11 9L13 9L13 10L11 10L11 12L10 12L10 13L12 13L12 12L14 12L14 13L13 13L13 15L12 15L12 16L10 16L10 15L11 15L11 14L10 14L10 15L9 15L9 16L8 16L8 19L10 19L10 18L9 18L9 16L10 16L10 17L12 17L12 16L13 16L13 17L14 17L14 18L11 18L11 20L9 20L9 21L11 21L11 20L12 20L12 19L13 19L13 21L14 21L14 20L16 20L16 21L19 21L19 20L20 20L20 19L19 19L19 16L18 16L18 15L17 15L17 16L18 16L18 18L16 18L16 16L15 16L15 15L16 15L16 14L15 14L15 12L16 12L16 13L17 13L17 14L18 14L18 13L20 13L20 12L21 12L21 11L19 11L19 10L20 10L20 9L21 9L21 8L18 8L18 13L17 13L17 10L16 10L16 8L13 8L13 6L12 6L12 7L11 7L11 4L12 4L12 3L13 3L13 2L12 2L12 1L11 1L11 2L10 2L10 1L9 1L9 0ZM9 5L9 8L10 8L10 5ZM14 10L14 11L16 11L16 10ZM19 14L19 15L21 15L21 14ZM15 18L15 19L16 19L16 18ZM17 19L17 20L18 20L18 19ZM0 0L0 7L7 7L7 0ZM1 1L1 6L6 6L6 1ZM2 2L2 5L5 5L5 2ZM14 0L14 7L21 7L21 0ZM15 1L15 6L20 6L20 1ZM16 2L16 5L19 5L19 2ZM0 14L0 21L7 21L7 14ZM1 15L1 20L6 20L6 15ZM2 16L2 19L5 19L5 16Z" fill="#000000"/></g></g></svg>
