<?xml version="1.0" encoding="UTF-8"?>
<svg xmlns="http://www.w3.org/2000/svg" version="1.1" width="500" height="500" viewBox="0 0 500 500"><g transform="scale(23.81)"><g transform="translate(0,0)"><path fill-rule="evenodd" d="M9 0L9 2L8 2L8 4L10 4L10 5L9 5L9 6L8 6L8 7L9 7L9 6L10 6L10 7L11 7L11 6L10 6L10 5L13 5L13 4L11 4L11 3L12 3L12 2L13 2L13 0ZM10 2L10 3L11 3L11 2ZM12 6L12 7L13 7L13 6ZM3 8L3 9L0 9L0 12L1 12L1 13L3 13L3 11L2 11L2 10L6 10L6 11L7 11L7 12L4 12L4 13L7 13L7 12L8 12L8 15L9 15L9 16L8 16L8 18L9 18L9 19L10 19L10 18L11 18L11 20L9 20L9 21L11 21L11 20L14 20L14 21L15 21L15 17L16 17L16 18L18 18L18 20L17 20L17 19L16 19L16 20L17 20L17 21L20 21L20 20L21 20L21 18L19 18L19 16L18 16L18 15L17 15L17 14L18 14L18 13L19 13L19 14L20 14L20 17L21 17L21 10L20 10L20 11L19 11L19 8L17 8L17 9L16 9L16 11L17 11L17 14L16 14L16 13L15 13L15 12L14 12L14 13L13 13L13 11L14 11L14 9L13 9L13 8L11 8L11 10L12 10L12 11L9 11L9 12L8 12L8 11L7 11L7 10L8 10L8 8L6 8L6 9L5 9L5 8ZM6 9L6 10L7 10L7 9ZM12 9L12 10L13 10L13 9ZM17 9L17 10L18 10L18 9ZM1 11L1 12L2 12L2 11ZM9 12L9 13L10 13L10 12ZM19 12L19 13L20 13L20 12ZM11 13L11 14L9 14L9 15L11 15L11 16L9 16L9 17L12 17L12 15L11 15L11 14L13 14L13 16L14 16L14 17L15 17L15 15L14 15L14 14L15 14L15 13L14 13L14 14L13 14L13 13ZM16 16L16 17L17 17L17 16ZM19 19L19 20L20 20L20 19ZM0 0L0 7L7 7L7 0ZM1 1L1 6L6 6L6 1ZM2 2L2 5L5 5L5 2ZM14 0L14 7L21 7L21 0ZM15 1L15 6L20 6L20 1ZM16 2L16 5L19 5L19 2ZM0 14L0 21L7 21L7 14ZM1 15L1 20L6 20L6 15ZM2 16L2 19L5 19L5 16Z" fill="#000000"/></g></g></svg>
