<?xml version="1.0" encoding="UTF-8"?>
<svg xmlns="http://www.w3.org/2000/svg" version="1.1" width="500" height="500" viewBox="0 0 500 500"><g transform="scale(23.81)"><g transform="translate(0,0)"><path fill-rule="evenodd" d="M11 0L11 1L10 1L10 2L9 2L9 1L8 1L8 7L9 7L9 8L5 8L5 9L7 9L7 10L6 10L6 11L5 11L5 10L4 10L4 9L3 9L3 8L2 8L2 10L4 10L4 11L5 11L5 12L3 12L3 13L5 13L5 12L6 12L6 13L8 13L8 16L9 16L9 17L10 17L10 18L8 18L8 19L10 19L10 21L11 21L11 20L12 20L12 21L13 21L13 19L14 19L14 21L15 21L15 19L14 19L14 18L15 18L15 17L21 17L21 16L19 16L19 15L18 15L18 14L19 14L19 12L20 12L20 13L21 13L21 9L20 9L20 8L15 8L15 9L19 9L19 10L17 10L17 11L16 11L16 12L17 12L17 14L16 14L16 13L14 13L14 14L13 14L13 16L14 16L14 15L15 15L15 17L13 17L13 19L12 19L12 17L11 17L11 15L12 15L12 13L13 13L13 12L15 12L15 10L14 10L14 11L13 11L13 12L12 12L12 13L11 13L11 15L9 15L9 14L10 14L10 13L9 13L9 12L6 12L6 11L8 11L8 10L10 10L10 12L11 12L11 11L12 11L12 10L11 10L11 8L12 8L12 9L14 9L14 8L13 8L13 5L12 5L12 4L13 4L13 2L12 2L12 4L11 4L11 1L12 1L12 0ZM9 6L9 7L10 7L10 6ZM11 6L11 7L12 7L12 6ZM9 8L9 9L10 9L10 8ZM0 9L0 10L1 10L1 9ZM1 11L1 12L0 12L0 13L2 13L2 11ZM17 11L17 12L19 12L19 11ZM16 15L16 16L17 16L17 15ZM18 18L18 19L19 19L19 20L18 20L18 21L21 21L21 20L20 20L20 19L21 19L21 18ZM16 19L16 20L17 20L17 19ZM0 0L0 7L7 7L7 0ZM1 1L1 6L6 6L6 1ZM2 2L2 5L5 5L5 2ZM14 0L14 7L21 7L21 0ZM15 1L15 6L20 6L20 1ZM16 2L16 5L19 5L19 2ZM0 14L0 21L7 21L7 14ZM1 15L1 20L6 20L6 15ZM2 16L2 19L5 19L5 16Z" fill="#000000"/></g></g></svg>
