<?xml version="1.0" encoding="UTF-8"?>
<svg xmlns="http://www.w3.org/2000/svg" version="1.1" width="500" height="500" viewBox="0 0 500 500"><g transform="scale(23.81)"><g transform="translate(0,0)"><path fill-rule="evenodd" d="M8 0L8 2L9 2L9 3L8 3L8 7L9 7L9 6L10 6L10 7L11 7L11 8L9 8L9 9L7 9L7 8L6 8L6 9L7 9L7 10L6 10L6 11L5 11L5 10L4 10L4 11L3 11L3 10L2 10L2 9L0 9L0 12L1 12L1 11L2 11L2 12L5 12L5 13L7 13L7 12L8 12L8 11L9 11L9 10L10 10L10 13L11 13L11 12L13 12L13 13L12 13L12 14L11 14L11 17L13 17L13 21L16 21L16 17L13 17L13 16L14 16L14 15L15 15L15 14L13 14L13 13L14 13L14 12L13 12L13 11L14 11L14 10L15 10L15 13L16 13L16 15L18 15L18 17L19 17L19 18L17 18L17 20L18 20L18 21L19 21L19 20L20 20L20 19L21 19L21 16L20 16L20 15L21 15L21 14L19 14L19 13L21 13L21 12L18 12L18 14L17 14L17 13L16 13L16 12L17 12L17 10L18 10L18 11L19 11L19 10L20 10L20 11L21 11L21 10L20 10L20 9L21 9L21 8L19 8L19 10L18 10L18 8L15 8L15 9L13 9L13 8L12 8L12 7L13 7L13 6L12 6L12 7L11 7L11 5L10 5L10 4L11 4L11 3L12 3L12 1L13 1L13 0L12 0L12 1L10 1L10 0ZM9 1L9 2L10 2L10 3L9 3L9 4L10 4L10 3L11 3L11 2L10 2L10 1ZM12 4L12 5L13 5L13 4ZM3 8L3 9L4 9L4 8ZM10 9L10 10L11 10L11 11L13 11L13 9L12 9L12 10L11 10L11 9ZM16 9L16 10L17 10L17 9ZM7 10L7 11L6 11L6 12L7 12L7 11L8 11L8 10ZM8 13L8 14L9 14L9 13ZM18 14L18 15L19 15L19 14ZM12 15L12 16L13 16L13 15ZM8 17L8 18L10 18L10 17ZM11 18L11 19L12 19L12 18ZM14 18L14 19L15 19L15 18ZM19 18L19 19L18 19L18 20L19 20L19 19L20 19L20 18ZM10 20L10 21L11 21L11 20ZM0 0L0 7L7 7L7 0ZM1 1L1 6L6 6L6 1ZM2 2L2 5L5 5L5 2ZM14 0L14 7L21 7L21 0ZM15 1L15 6L20 6L20 1ZM16 2L16 5L19 5L19 2ZM0 14L0 21L7 21L7 14ZM1 15L1 20L6 20L6 15ZM2 16L2 19L5 19L5 16Z" fill="#000000"/></g></g></svg>
