<?xml version="1.0" encoding="UTF-8"?>
<svg xmlns="http://www.w3.org/2000/svg" version="1.1" width="500" height="500" viewBox="0 0 500 500"><g transform="scale(23.81)"><g transform="translate(0,0)"><path fill-rule="evenodd" d="M9 0L9 1L11 1L11 2L10 2L10 3L9 3L9 2L8 2L8 4L9 4L9 5L11 5L11 6L10 6L10 7L11 7L11 8L12 8L12 9L9 9L9 10L5 10L5 8L3 8L3 10L2 10L2 9L0 9L0 10L2 10L2 12L0 12L0 13L3 13L3 11L4 11L4 12L5 12L5 13L7 13L7 12L9 12L9 13L8 13L8 15L9 15L9 16L8 16L8 18L9 18L9 20L10 20L10 21L11 21L11 20L12 20L12 21L13 21L13 20L12 20L12 19L13 19L13 17L14 17L14 14L15 14L15 17L16 17L16 18L18 18L18 20L17 20L17 19L16 19L16 20L17 20L17 21L20 21L20 20L21 20L21 18L19 18L19 16L18 16L18 15L17 15L17 14L18 14L18 13L19 13L19 14L20 14L20 17L21 17L21 9L19 9L19 8L17 8L17 9L16 9L16 11L17 11L17 14L16 14L16 13L15 13L15 12L14 12L14 13L12 13L12 14L11 14L11 15L12 15L12 16L13 16L13 17L12 17L12 19L11 19L11 18L10 18L10 17L9 17L9 16L10 16L10 12L11 12L11 10L12 10L12 11L13 11L13 10L14 10L14 11L15 11L15 9L13 9L13 5L12 5L12 4L13 4L13 1L12 1L12 0ZM11 2L11 3L12 3L12 2ZM8 6L8 7L9 7L9 6ZM11 6L11 7L12 7L12 6ZM6 8L6 9L8 9L8 8ZM12 9L12 10L13 10L13 9ZM17 9L17 10L18 10L18 9ZM5 11L5 12L7 12L7 11ZM9 11L9 12L10 12L10 11ZM19 12L19 13L20 13L20 12ZM12 14L12 15L13 15L13 14ZM16 16L16 17L17 17L17 16ZM14 18L14 20L15 20L15 18ZM10 19L10 20L11 20L11 19ZM19 19L19 20L20 20L20 19ZM0 0L0 7L7 7L7 0ZM1 1L1 6L6 6L6 1ZM2 2L2 5L5 5L5 2ZM14 0L14 7L21 7L21 0ZM15 1L15 6L20 6L20 1ZM16 2L16 5L19 5L19 2ZM0 14L0 21L7 21L7 14ZM1 15L1 20L6 20L6 15ZM2 16L2 19L5 19L5 16Z" fill="#000000"/></g></g></svg>
