<?xml version="1.0" encoding="UTF-8"?>
<svg xmlns="http://www.w3.org/2000/svg" version="1.1" width="500" height="500" viewBox="0 0 500 500"><g transform="scale(23.81)"><g transform="translate(0,0)"><path fill-rule="evenodd" d="M11 0L11 1L8 1L8 7L9 7L9 6L10 6L10 7L11 7L11 8L10 8L10 10L9 10L9 8L5 8L5 10L4 10L4 9L3 9L3 8L2 8L2 9L0 9L0 13L1 13L1 11L5 11L5 13L8 13L8 16L9 16L9 15L10 15L10 14L9 14L9 13L11 13L11 14L12 14L12 15L11 15L11 16L12 16L12 17L9 17L9 18L8 18L8 19L9 19L9 18L13 18L13 17L21 17L21 16L19 16L19 15L20 15L20 14L19 14L19 12L20 12L20 11L21 11L21 10L17 10L17 11L16 11L16 12L17 12L17 14L16 14L16 13L13 13L13 14L12 14L12 13L11 13L11 12L14 12L14 10L15 10L15 9L20 9L20 8L15 8L15 9L14 9L14 8L13 8L13 5L12 5L12 3L13 3L13 2L12 2L12 1L13 1L13 0ZM10 2L10 3L9 3L9 5L10 5L10 4L11 4L11 2ZM11 5L11 7L12 7L12 5ZM12 8L12 9L11 9L11 10L10 10L10 11L9 11L9 12L8 12L8 13L9 13L9 12L10 12L10 11L11 11L11 10L14 10L14 9L13 9L13 8ZM6 9L6 10L5 10L5 11L6 11L6 12L7 12L7 11L6 11L6 10L8 10L8 9ZM17 11L17 12L19 12L19 11ZM2 12L2 13L4 13L4 12ZM14 14L14 16L15 16L15 14ZM18 14L18 15L19 15L19 14ZM16 15L16 16L17 16L17 15ZM18 18L18 19L19 19L19 20L18 20L18 21L21 21L21 20L20 20L20 19L21 19L21 18ZM10 19L10 20L11 20L11 21L15 21L15 20L14 20L14 19L13 19L13 20L11 20L11 19ZM16 19L16 20L17 20L17 19ZM0 0L0 7L7 7L7 0ZM1 1L1 6L6 6L6 1ZM2 2L2 5L5 5L5 2ZM14 0L14 7L21 7L21 0ZM15 1L15 6L20 6L20 1ZM16 2L16 5L19 5L19 2ZM0 14L0 21L7 21L7 14ZM1 15L1 20L6 20L6 15ZM2 16L2 19L5 19L5 16Z" fill="#000000"/></g></g></svg>
