<?xml version="1.0" encoding="UTF-8"?>
<svg xmlns="http://www.w3.org/2000/svg" version="1.1" width="500" height="500" viewBox="0 0 500 500"><g transform="scale(23.81)"><g transform="translate(0,0)"><path fill-rule="evenodd" d="M10 0L10 5L12 5L12 8L11 8L11 6L10 6L10 7L9 7L9 1L8 1L8 7L9 7L9 8L5 8L5 9L4 9L4 10L3 10L3 8L2 8L2 10L1 10L1 9L0 9L0 11L2 11L2 10L3 10L3 11L4 11L4 12L5 12L5 13L8 13L8 16L12 16L12 17L13 17L13 18L12 18L12 19L11 19L11 20L9 20L9 21L13 21L13 20L12 20L12 19L13 19L13 18L14 18L14 17L21 17L21 16L19 16L19 15L20 15L20 14L19 14L19 12L20 12L20 10L17 10L17 11L16 11L16 12L17 12L17 14L16 14L16 13L15 13L15 12L14 12L14 11L15 11L15 9L20 9L20 8L15 8L15 9L14 9L14 8L13 8L13 5L12 5L12 2L13 2L13 0L12 0L12 2L11 2L11 0ZM9 8L9 9L6 9L6 10L5 10L5 11L6 11L6 12L10 12L10 13L9 13L9 15L10 15L10 14L11 14L11 10L12 10L12 9L11 9L11 8ZM9 9L9 11L10 11L10 10L11 10L11 9ZM13 9L13 10L14 10L14 9ZM6 10L6 11L8 11L8 10ZM17 11L17 12L19 12L19 11ZM0 12L0 13L2 13L2 12ZM12 12L12 15L13 15L13 17L14 17L14 14L15 14L15 13L13 13L13 12ZM18 14L18 15L19 15L19 14ZM16 15L16 16L17 16L17 15ZM9 17L9 18L8 18L8 19L10 19L10 18L11 18L11 17ZM18 18L18 19L19 19L19 20L18 20L18 21L21 21L21 20L20 20L20 19L21 19L21 18ZM14 19L14 21L15 21L15 19ZM16 19L16 20L17 20L17 19ZM0 0L0 7L7 7L7 0ZM1 1L1 6L6 6L6 1ZM2 2L2 5L5 5L5 2ZM14 0L14 7L21 7L21 0ZM15 1L15 6L20 6L20 1ZM16 2L16 5L19 5L19 2ZM0 14L0 21L7 21L7 14ZM1 15L1 20L6 20L6 15ZM2 16L2 19L5 19L5 16Z" fill="#000000"/></g></g></svg>
