<?xml version="1.0" encoding="UTF-8"?>
<svg xmlns="http://www.w3.org/2000/svg" version="1.1" width="500" height="500" viewBox="0 0 500 500"><g transform="scale(23.81)"><g transform="translate(0,0)"><path fill-rule="evenodd" d="M9 0L9 2L8 2L8 4L9 4L9 5L10 5L10 9L11 9L11 10L12 10L12 11L11 11L11 12L10 12L10 11L9 11L9 9L8 9L8 8L6 8L6 9L5 9L5 8L3 8L3 9L1 9L1 10L0 10L0 11L2 11L2 12L0 12L0 13L7 13L7 12L6 12L6 11L7 11L7 10L6 10L6 9L8 9L8 15L9 15L9 14L10 14L10 17L11 17L11 15L12 15L12 17L14 17L14 16L15 16L15 17L16 17L16 18L18 18L18 20L17 20L17 19L16 19L16 20L17 20L17 21L20 21L20 20L21 20L21 18L19 18L19 16L18 16L18 15L17 15L17 14L18 14L18 13L19 13L19 15L20 15L20 17L21 17L21 13L19 13L19 12L21 12L21 9L20 9L20 11L19 11L19 8L17 8L17 9L16 9L16 11L17 11L17 14L16 14L16 13L11 13L11 12L12 12L12 11L13 11L13 9L12 9L12 8L13 8L13 4L12 4L12 2L13 2L13 0L11 0L11 1L10 1L10 0ZM11 1L11 2L10 2L10 3L9 3L9 4L11 4L11 2L12 2L12 1ZM8 6L8 7L9 7L9 6ZM11 6L11 8L12 8L12 6ZM3 9L3 10L2 10L2 11L4 11L4 12L5 12L5 11L6 11L6 10L4 10L4 9ZM14 9L14 10L15 10L15 9ZM17 9L17 10L18 10L18 9ZM14 11L14 12L15 12L15 11ZM9 12L9 13L10 13L10 12ZM13 14L13 15L14 15L14 14ZM8 16L8 18L9 18L9 16ZM16 16L16 17L17 17L17 16ZM10 18L10 19L9 19L9 20L10 20L10 19L13 19L13 18ZM14 18L14 19L15 19L15 18ZM19 19L19 20L20 20L20 19ZM11 20L11 21L13 21L13 20ZM0 0L0 7L7 7L7 0ZM1 1L1 6L6 6L6 1ZM2 2L2 5L5 5L5 2ZM14 0L14 7L21 7L21 0ZM15 1L15 6L20 6L20 1ZM16 2L16 5L19 5L19 2ZM0 14L0 21L7 21L7 14ZM1 15L1 20L6 20L6 15ZM2 16L2 19L5 19L5 16Z" fill="#000000"/></g></g></svg>
