<?xml version="1.0" encoding="UTF-8"?>
<svg xmlns="http://www.w3.org/2000/svg" version="1.1" width="500" height="500" viewBox="0 0 500 500"><g transform="scale(23.81)"><g transform="translate(0,0)"><path fill-rule="evenodd" d="M9 0L9 1L10 1L10 4L9 4L9 2L8 2L8 4L9 4L9 6L8 6L8 7L9 7L9 8L10 8L10 7L11 7L11 10L12 10L12 11L9 11L9 12L11 12L11 13L8 13L8 15L9 15L9 16L8 16L8 18L9 18L9 21L14 21L14 20L15 20L15 18L14 18L14 17L13 17L13 15L14 15L14 14L13 14L13 13L15 13L15 17L16 17L16 18L18 18L18 20L17 20L17 19L16 19L16 20L17 20L17 21L20 21L20 20L21 20L21 18L19 18L19 16L18 16L18 15L17 15L17 14L18 14L18 13L19 13L19 15L20 15L20 17L21 17L21 13L19 13L19 12L21 12L21 11L19 11L19 8L17 8L17 9L16 9L16 11L17 11L17 14L16 14L16 13L15 13L15 9L14 9L14 12L13 12L13 13L12 13L12 11L13 11L13 10L12 10L12 9L13 9L13 4L12 4L12 3L13 3L13 2L12 2L12 1L13 1L13 0L12 0L12 1L11 1L11 0ZM10 5L10 6L9 6L9 7L10 7L10 6L11 6L11 7L12 7L12 6L11 6L11 5ZM3 8L3 9L2 9L2 10L0 10L0 13L1 13L1 11L2 11L2 12L4 12L4 13L7 13L7 12L8 12L8 11L7 11L7 10L6 10L6 9L8 9L8 8L6 8L6 9L5 9L5 8ZM4 9L4 10L3 10L3 11L6 11L6 12L7 12L7 11L6 11L6 10L5 10L5 9ZM9 9L9 10L10 10L10 9ZM17 9L17 10L18 10L18 9ZM20 9L20 10L21 10L21 9ZM10 14L10 16L9 16L9 18L11 18L11 17L12 17L12 15L13 15L13 14ZM10 16L10 17L11 17L11 16ZM16 16L16 17L17 17L17 16ZM12 18L12 20L13 20L13 19L14 19L14 18ZM19 19L19 20L20 20L20 19ZM0 0L0 7L7 7L7 0ZM1 1L1 6L6 6L6 1ZM2 2L2 5L5 5L5 2ZM14 0L14 7L21 7L21 0ZM15 1L15 6L20 6L20 1ZM16 2L16 5L19 5L19 2ZM0 14L0 21L7 21L7 14ZM1 15L1 20L6 20L6 15ZM2 16L2 19L5 19L5 16Z" fill="#000000"/></g></g></svg>
