<?xml version="1.0" encoding="UTF-8"?>
<svg xmlns="http://www.w3.org/2000/svg" version="1.1" width="500" height="500" viewBox="0 0 500 500"><g transform="scale(23.81)"><g transform="translate(0,0)"><path fill-rule="evenodd" d="M9 0L9 1L10 1L10 2L9 2L9 3L10 3L10 4L8 4L8 5L9 5L9 6L8 6L8 8L6 8L6 9L4 9L4 8L2 8L2 9L0 9L0 13L1 13L1 10L2 10L2 9L4 9L4 10L3 10L3 11L2 11L2 13L3 13L3 12L4 12L4 13L8 13L8 15L9 15L9 13L10 13L10 15L12 15L12 14L11 14L11 11L9 11L9 13L8 13L8 12L6 12L6 11L7 11L7 10L8 10L8 9L9 9L9 10L10 10L10 9L12 9L12 10L15 10L15 11L13 11L13 14L14 14L14 13L15 13L15 14L16 14L16 15L17 15L17 17L16 17L16 20L15 20L15 19L13 19L13 20L14 20L14 21L16 21L16 20L17 20L17 21L18 21L18 19L19 19L19 21L20 21L20 20L21 20L21 19L19 19L19 18L20 18L20 17L21 17L21 16L20 16L20 17L19 17L19 18L17 18L17 17L18 17L18 15L21 15L21 13L19 13L19 12L18 12L18 15L17 15L17 14L16 14L16 13L17 13L17 12L16 12L16 13L15 13L15 11L18 11L18 10L19 10L19 9L18 9L18 10L16 10L16 9L17 9L17 8L16 8L16 9L15 9L15 8L13 8L13 6L12 6L12 7L11 7L11 5L10 5L10 4L12 4L12 5L13 5L13 0ZM11 1L11 2L10 2L10 3L12 3L12 1ZM9 6L9 7L10 7L10 8L9 8L9 9L10 9L10 8L11 8L11 7L10 7L10 6ZM6 9L6 10L7 10L7 9ZM4 10L4 11L5 11L5 10ZM20 10L20 11L21 11L21 10ZM14 15L14 16L15 16L15 15ZM12 16L12 17L11 17L11 18L10 18L10 17L8 17L8 19L9 19L9 20L10 20L10 21L11 21L11 18L12 18L12 17L13 17L13 16ZM0 0L0 7L7 7L7 0ZM1 1L1 6L6 6L6 1ZM2 2L2 5L5 5L5 2ZM14 0L14 7L21 7L21 0ZM15 1L15 6L20 6L20 1ZM16 2L16 5L19 5L19 2ZM0 14L0 21L7 21L7 14ZM1 15L1 20L6 20L6 15ZM2 16L2 19L5 19L5 16Z" fill="#000000"/></g></g></svg>
