<?xml version="1.0" encoding="UTF-8"?>
<svg xmlns="http://www.w3.org/2000/svg" version="1.1" width="500" height="500" viewBox="0 0 500 500"><g transform="scale(23.81)"><g transform="translate(0,0)"><path fill-rule="evenodd" d="M9 0L9 1L8 1L8 7L9 7L9 4L10 4L10 8L5 8L5 10L4 10L4 11L3 11L3 10L1 10L1 12L0 12L0 13L1 13L1 12L2 12L2 13L4 13L4 12L6 12L6 13L7 13L7 12L6 12L6 11L8 11L8 12L9 12L9 13L8 13L8 16L9 16L9 18L8 18L8 19L9 19L9 20L10 20L10 19L9 19L9 18L11 18L11 19L14 19L14 20L11 20L11 21L14 21L14 20L15 20L15 18L13 18L13 17L12 17L12 18L11 18L11 15L12 15L12 16L14 16L14 14L13 14L13 15L12 15L12 13L11 13L11 10L10 10L10 8L12 8L12 11L14 11L14 12L13 12L13 13L15 13L15 17L21 17L21 16L19 16L19 15L20 15L20 13L21 13L21 12L20 12L20 10L17 10L17 11L16 11L16 12L17 12L17 14L16 14L16 13L15 13L15 9L20 9L20 8L15 8L15 9L14 9L14 8L13 8L13 6L12 6L12 7L11 7L11 4L12 4L12 3L13 3L13 2L11 2L11 1L13 1L13 0ZM10 3L10 4L11 4L11 3ZM2 8L2 9L3 9L3 8ZM6 9L6 10L7 10L7 9ZM17 11L17 12L19 12L19 11ZM9 13L9 16L10 16L10 15L11 15L11 14L10 14L10 13ZM18 14L18 15L19 15L19 14ZM16 15L16 16L17 16L17 15ZM18 18L18 19L19 19L19 20L18 20L18 21L21 21L21 20L20 20L20 19L21 19L21 18ZM16 19L16 20L17 20L17 19ZM0 0L0 7L7 7L7 0ZM1 1L1 6L6 6L6 1ZM2 2L2 5L5 5L5 2ZM14 0L14 7L21 7L21 0ZM15 1L15 6L20 6L20 1ZM16 2L16 5L19 5L19 2ZM0 14L0 21L7 21L7 14ZM1 15L1 20L6 20L6 15ZM2 16L2 19L5 19L5 16Z" fill="#000000"/></g></g></svg>
