<?xml version="1.0" encoding="UTF-8"?>
<svg xmlns="http://www.w3.org/2000/svg" version="1.1" width="500" height="500" viewBox="0 0 500 500"><g transform="scale(23.81)"><g transform="translate(0,0)"><path fill-rule="evenodd" d="M8 0L8 2L9 2L9 3L8 3L8 7L9 7L9 8L10 8L10 7L11 7L11 9L12 9L12 10L13 10L13 11L12 11L12 12L11 12L11 11L10 11L10 9L9 9L9 10L8 10L8 9L7 9L7 8L6 8L6 9L4 9L4 8L3 8L3 9L4 9L4 10L5 10L5 11L7 11L7 10L8 10L8 11L9 11L9 12L8 12L8 14L9 14L9 15L11 15L11 16L10 16L10 19L9 19L9 21L10 21L10 20L11 20L11 21L13 21L13 18L14 18L14 19L15 19L15 20L14 20L14 21L16 21L16 17L14 17L14 16L15 16L15 14L13 14L13 15L11 15L11 13L13 13L13 11L14 11L14 9L12 9L12 8L13 8L13 6L12 6L12 5L13 5L13 4L12 4L12 3L13 3L13 0L12 0L12 3L11 3L11 4L9 4L9 3L10 3L10 2L11 2L11 0ZM9 1L9 2L10 2L10 1ZM9 5L9 7L10 7L10 5ZM11 6L11 7L12 7L12 6ZM15 8L15 13L16 13L16 15L18 15L18 17L19 17L19 18L17 18L17 20L18 20L18 21L19 21L19 20L20 20L20 19L21 19L21 16L20 16L20 15L21 15L21 14L20 14L20 11L21 11L21 10L20 10L20 9L21 9L21 8L19 8L19 10L18 10L18 8ZM0 9L0 11L1 11L1 13L2 13L2 11L3 11L3 13L5 13L5 12L4 12L4 11L3 11L3 10L2 10L2 9ZM6 9L6 10L7 10L7 9ZM16 9L16 10L17 10L17 12L16 12L16 13L17 13L17 14L18 14L18 15L20 15L20 14L18 14L18 12L19 12L19 11L18 11L18 10L17 10L17 9ZM1 10L1 11L2 11L2 10ZM6 12L6 13L7 13L7 12ZM13 15L13 16L14 16L14 15ZM8 17L8 18L9 18L9 17ZM11 17L11 18L12 18L12 17ZM19 18L19 19L18 19L18 20L19 20L19 19L20 19L20 18ZM11 19L11 20L12 20L12 19ZM0 0L0 7L7 7L7 0ZM1 1L1 6L6 6L6 1ZM2 2L2 5L5 5L5 2ZM14 0L14 7L21 7L21 0ZM15 1L15 6L20 6L20 1ZM16 2L16 5L19 5L19 2ZM0 14L0 21L7 21L7 14ZM1 15L1 20L6 20L6 15ZM2 16L2 19L5 19L5 16Z" fill="#000000"/></g></g></svg>
