<?xml version="1.0" encoding="UTF-8"?>
<svg xmlns="http://www.w3.org/2000/svg" version="1.1" width="500" height="500" viewBox="0 0 500 500"><g transform="scale(23.81)"><g transform="translate(0,0)"><path fill-rule="evenodd" d="M12 0L12 2L8 2L8 4L10 4L10 7L9 7L9 6L8 6L8 7L9 7L9 10L11 10L11 11L10 11L10 12L11 12L11 14L12 14L12 15L14 15L14 16L12 16L12 18L13 18L13 19L15 19L15 18L14 18L14 16L15 16L15 17L16 17L16 18L18 18L18 20L17 20L17 19L16 19L16 20L17 20L17 21L20 21L20 20L21 20L21 18L19 18L19 16L18 16L18 15L17 15L17 14L18 14L18 13L19 13L19 8L17 8L17 9L16 9L16 11L17 11L17 14L16 14L16 13L15 13L15 9L14 9L14 11L13 11L13 12L12 12L12 10L13 10L13 8L12 8L12 7L13 7L13 3L12 3L12 2L13 2L13 0ZM10 3L10 4L11 4L11 7L10 7L10 8L11 8L11 9L12 9L12 8L11 8L11 7L12 7L12 3ZM3 8L3 9L1 9L1 10L0 10L0 11L2 11L2 12L1 12L1 13L8 13L8 15L10 15L10 14L9 14L9 13L8 13L8 12L6 12L6 11L8 11L8 10L6 10L6 11L5 11L5 12L3 12L3 11L4 11L4 10L5 10L5 8ZM6 8L6 9L8 9L8 8ZM3 9L3 10L2 10L2 11L3 11L3 10L4 10L4 9ZM17 9L17 10L18 10L18 9ZM20 9L20 10L21 10L21 9ZM20 11L20 12L21 12L21 11ZM13 12L13 14L14 14L14 15L15 15L15 13L14 13L14 12ZM20 13L20 14L19 14L19 15L20 15L20 17L21 17L21 13ZM8 16L8 18L10 18L10 20L9 20L9 21L11 21L11 18L10 18L10 17L11 17L11 16ZM16 16L16 17L17 17L17 16ZM19 19L19 20L20 20L20 19ZM12 20L12 21L13 21L13 20ZM14 20L14 21L15 21L15 20ZM0 0L0 7L7 7L7 0ZM1 1L1 6L6 6L6 1ZM2 2L2 5L5 5L5 2ZM14 0L14 7L21 7L21 0ZM15 1L15 6L20 6L20 1ZM16 2L16 5L19 5L19 2ZM0 14L0 21L7 21L7 14ZM1 15L1 20L6 20L6 15ZM2 16L2 19L5 19L5 16Z" fill="#000000"/></g></g></svg>
