<?xml version="1.0" encoding="UTF-8"?>
<svg xmlns="http://www.w3.org/2000/svg" version="1.1" width="500" height="500" viewBox="0 0 500 500"><g transform="scale(23.81)"><g transform="translate(0,0)"><path fill-rule="evenodd" d="M11 0L11 1L12 1L12 2L9 2L9 1L8 1L8 7L9 7L9 4L11 4L11 5L10 5L10 8L5 8L5 9L3 9L3 8L2 8L2 9L0 9L0 11L1 11L1 12L0 12L0 13L2 13L2 12L3 12L3 13L4 13L4 12L3 12L3 11L5 11L5 13L7 13L7 12L8 12L8 16L10 16L10 14L11 14L11 15L13 15L13 18L14 18L14 19L15 19L15 18L14 18L14 17L21 17L21 16L19 16L19 15L20 15L20 14L21 14L21 12L20 12L20 14L19 14L19 12L17 12L17 11L20 11L20 10L17 10L17 11L16 11L16 12L17 12L17 14L16 14L16 13L15 13L15 14L14 14L14 12L15 12L15 10L14 10L14 8L12 8L12 7L13 7L13 6L12 6L12 7L11 7L11 5L12 5L12 4L13 4L13 3L12 3L12 2L13 2L13 0ZM11 3L11 4L12 4L12 3ZM10 8L10 9L6 9L6 10L7 10L7 11L6 11L6 12L7 12L7 11L8 11L8 10L10 10L10 9L11 9L11 11L9 11L9 12L10 12L10 13L12 13L12 14L13 14L13 15L14 15L14 16L15 16L15 15L14 15L14 14L13 14L13 13L12 13L12 12L11 12L11 11L12 11L12 8ZM15 8L15 9L20 9L20 8ZM2 9L2 10L1 10L1 11L3 11L3 9ZM18 14L18 15L19 15L19 14ZM16 15L16 16L17 16L17 15ZM10 17L10 18L11 18L11 19L9 19L9 18L8 18L8 19L9 19L9 20L11 20L11 19L12 19L12 17ZM18 18L18 19L19 19L19 20L18 20L18 21L21 21L21 20L20 20L20 19L21 19L21 18ZM16 19L16 20L17 20L17 19ZM12 20L12 21L15 21L15 20ZM0 0L0 7L7 7L7 0ZM1 1L1 6L6 6L6 1ZM2 2L2 5L5 5L5 2ZM14 0L14 7L21 7L21 0ZM15 1L15 6L20 6L20 1ZM16 2L16 5L19 5L19 2ZM0 14L0 21L7 21L7 14ZM1 15L1 20L6 20L6 15ZM2 16L2 19L5 19L5 16Z" fill="#000000"/></g></g></svg>
