<?xml version="1.0" encoding="UTF-8"?>
<svg xmlns="http://www.w3.org/2000/svg" version="1.1" width="500" height="500" viewBox="0 0 500 500"><g transform="scale(23.81)"><g transform="translate(0,0)"><path fill-rule="evenodd" d="M9 0L9 1L10 1L10 0ZM11 0L11 2L8 2L8 4L9 4L9 6L8 6L8 7L9 7L9 6L10 6L10 7L11 7L11 6L12 6L12 7L13 7L13 6L12 6L12 5L13 5L13 2L12 2L12 1L13 1L13 0ZM11 3L11 4L10 4L10 5L11 5L11 4L12 4L12 3ZM3 8L3 9L5 9L5 12L4 12L4 11L3 11L3 10L2 10L2 9L1 9L1 10L0 10L0 13L1 13L1 12L2 12L2 11L3 11L3 13L8 13L8 15L9 15L9 16L8 16L8 18L10 18L10 19L11 19L11 18L10 18L10 17L11 17L11 16L12 16L12 15L13 15L13 17L12 17L12 19L13 19L13 20L12 20L12 21L13 21L13 20L14 20L14 19L13 19L13 18L14 18L14 16L15 16L15 17L16 17L16 18L18 18L18 20L17 20L17 19L16 19L16 20L17 20L17 21L20 21L20 20L21 20L21 18L19 18L19 16L18 16L18 15L17 15L17 14L18 14L18 13L19 13L19 15L20 15L20 17L21 17L21 14L20 14L20 13L21 13L21 11L20 11L20 13L19 13L19 8L17 8L17 9L16 9L16 11L17 11L17 14L16 14L16 13L15 13L15 15L14 15L14 12L12 12L12 11L13 11L13 10L14 10L14 11L15 11L15 10L14 10L14 9L13 9L13 8L12 8L12 9L11 9L11 10L10 10L10 11L9 11L9 10L6 10L6 9L8 9L8 8L6 8L6 9L5 9L5 8ZM9 8L9 9L10 9L10 8ZM12 9L12 10L13 10L13 9ZM17 9L17 10L18 10L18 9ZM20 9L20 10L21 10L21 9ZM1 10L1 11L2 11L2 10ZM6 11L6 12L8 12L8 13L9 13L9 15L10 15L10 14L11 14L11 15L12 15L12 14L11 14L11 13L12 13L12 12L8 12L8 11ZM9 16L9 17L10 17L10 16ZM16 16L16 17L17 17L17 16ZM19 19L19 20L20 20L20 19ZM0 0L0 7L7 7L7 0ZM1 1L1 6L6 6L6 1ZM2 2L2 5L5 5L5 2ZM14 0L14 7L21 7L21 0ZM15 1L15 6L20 6L20 1ZM16 2L16 5L19 5L19 2ZM0 14L0 21L7 21L7 14ZM1 15L1 20L6 20L6 15ZM2 16L2 19L5 19L5 16Z" fill="#000000"/></g></g></svg>
