<?xml version="1.0" encoding="UTF-8"?>
<svg xmlns="http://www.w3.org/2000/svg" version="1.1" width="500" height="500" viewBox="0 0 500 500"><g transform="scale(23.81)"><g transform="translate(0,0)"><path fill-rule="evenodd" d="M8 0L8 1L9 1L9 0ZM10 0L10 2L9 2L9 3L8 3L8 4L9 4L9 5L13 5L13 4L11 4L11 3L10 3L10 2L13 2L13 1L12 1L12 0ZM8 6L8 7L9 7L9 8L8 8L8 9L9 9L9 8L10 8L10 9L11 9L11 8L12 8L12 7L13 7L13 6L12 6L12 7L11 7L11 6L10 6L10 7L9 7L9 6ZM10 7L10 8L11 8L11 7ZM2 8L2 9L0 9L0 10L2 10L2 9L3 9L3 8ZM4 8L4 9L5 9L5 10L3 10L3 11L2 11L2 13L3 13L3 11L5 11L5 10L6 10L6 11L8 11L8 12L6 12L6 13L8 13L8 14L9 14L9 15L8 15L8 17L10 17L10 18L8 18L8 19L10 19L10 20L12 20L12 21L13 21L13 20L12 20L12 19L10 19L10 18L12 18L12 16L13 16L13 18L15 18L15 19L14 19L14 20L15 20L15 21L16 21L16 20L17 20L17 21L19 21L19 20L18 20L18 19L19 19L19 18L20 18L20 19L21 19L21 18L20 18L20 17L21 17L21 16L20 16L20 15L18 15L18 17L17 17L17 16L16 16L16 17L15 17L15 13L16 13L16 12L18 12L18 14L21 14L21 10L20 10L20 9L21 9L21 8L20 8L20 9L19 9L19 10L18 10L18 8L17 8L17 10L18 10L18 11L16 11L16 9L14 9L14 8L13 8L13 10L11 10L11 11L9 11L9 10L6 10L6 9L7 9L7 8ZM13 10L13 12L11 12L11 13L9 13L9 14L13 14L13 12L14 12L14 13L15 13L15 10ZM19 10L19 11L18 11L18 12L20 12L20 10ZM0 11L0 12L1 12L1 11ZM4 12L4 13L5 13L5 12ZM16 14L16 15L17 15L17 14ZM10 15L10 17L11 17L11 15ZM13 15L13 16L14 16L14 15ZM19 16L19 17L18 17L18 18L19 18L19 17L20 17L20 16ZM16 17L16 19L17 19L17 17ZM20 20L20 21L21 21L21 20ZM0 0L0 7L7 7L7 0ZM1 1L1 6L6 6L6 1ZM2 2L2 5L5 5L5 2ZM14 0L14 7L21 7L21 0ZM15 1L15 6L20 6L20 1ZM16 2L16 5L19 5L19 2ZM0 14L0 21L7 21L7 14ZM1 15L1 20L6 20L6 15ZM2 16L2 19L5 19L5 16Z" fill="#000000"/></g></g></svg>
