<?xml version="1.0" encoding="UTF-8"?>
<svg xmlns="http://www.w3.org/2000/svg" version="1.1" width="500" height="500" viewBox="0 0 500 500"><g transform="scale(23.81)"><g transform="translate(0,0)"><path fill-rule="evenodd" d="M9 0L9 1L10 1L10 2L8 2L8 4L9 4L9 3L10 3L10 4L12 4L12 7L11 7L11 6L10 6L10 7L9 7L9 6L8 6L8 7L9 7L9 9L10 9L10 10L9 10L9 11L10 11L10 12L12 12L12 11L13 11L13 13L11 13L11 14L13 14L13 15L14 15L14 17L13 17L13 18L11 18L11 20L10 20L10 17L11 17L11 16L10 16L10 13L8 13L8 15L9 15L9 16L8 16L8 18L9 18L9 20L10 20L10 21L11 21L11 20L12 20L12 21L13 21L13 20L14 20L14 21L15 21L15 19L14 19L14 18L15 18L15 17L16 17L16 18L18 18L18 20L17 20L17 19L16 19L16 20L17 20L17 21L20 21L20 20L21 20L21 18L19 18L19 16L18 16L18 15L17 15L17 14L18 14L18 13L19 13L19 15L20 15L20 17L21 17L21 14L20 14L20 13L21 13L21 11L19 11L19 8L17 8L17 9L16 9L16 11L17 11L17 14L16 14L16 13L15 13L15 12L14 12L14 11L15 11L15 10L14 10L14 11L13 11L13 10L12 10L12 9L13 9L13 1L12 1L12 0L11 0L11 1L10 1L10 0ZM11 2L11 3L12 3L12 2ZM3 8L3 9L1 9L1 10L2 10L2 11L0 11L0 12L4 12L4 13L7 13L7 12L4 12L4 11L3 11L3 9L5 9L5 8ZM6 8L6 9L7 9L7 10L5 10L5 11L8 11L8 8ZM10 8L10 9L12 9L12 8ZM17 9L17 10L18 10L18 9ZM20 9L20 10L21 10L21 9ZM11 10L11 11L12 11L12 10ZM19 12L19 13L20 13L20 12ZM13 13L13 14L14 14L14 13ZM9 16L9 17L10 17L10 16ZM16 16L16 17L17 17L17 16ZM19 19L19 20L20 20L20 19ZM0 0L0 7L7 7L7 0ZM1 1L1 6L6 6L6 1ZM2 2L2 5L5 5L5 2ZM14 0L14 7L21 7L21 0ZM15 1L15 6L20 6L20 1ZM16 2L16 5L19 5L19 2ZM0 14L0 21L7 21L7 14ZM1 15L1 20L6 20L6 15ZM2 16L2 19L5 19L5 16Z" fill="#000000"/></g></g></svg>
