<?xml version="1.0" encoding="UTF-8"?>
<svg xmlns="http://www.w3.org/2000/svg" version="1.1" width="500" height="500" viewBox="0 0 500 500"><g transform="scale(23.81)"><g transform="translate(0,0)"><path fill-rule="evenodd" d="M10 0L10 1L9 1L9 2L8 2L8 4L10 4L10 5L9 5L9 6L8 6L8 7L9 7L9 11L10 11L10 9L12 9L12 11L13 11L13 12L9 12L9 13L8 13L8 15L9 15L9 14L10 14L10 15L12 15L12 16L13 16L13 17L16 17L16 18L18 18L18 20L17 20L17 19L16 19L16 20L17 20L17 21L20 21L20 20L21 20L21 18L19 18L19 16L18 16L18 15L17 15L17 14L18 14L18 13L19 13L19 15L20 15L20 17L21 17L21 14L20 14L20 13L21 13L21 12L20 12L20 13L19 13L19 8L17 8L17 9L16 9L16 11L17 11L17 14L16 14L16 13L15 13L15 11L13 11L13 10L15 10L15 9L12 9L12 8L13 8L13 5L12 5L12 4L11 4L11 3L9 3L9 2L10 2L10 1L11 1L11 2L12 2L12 3L13 3L13 0L12 0L12 1L11 1L11 0ZM9 6L9 7L10 7L10 8L12 8L12 6L11 6L11 7L10 7L10 6ZM3 8L3 9L2 9L2 10L0 10L0 11L1 11L1 12L0 12L0 13L1 13L1 12L2 12L2 13L3 13L3 11L4 11L4 10L5 10L5 11L8 11L8 10L6 10L6 9L8 9L8 8L6 8L6 9L5 9L5 8ZM3 9L3 10L4 10L4 9ZM17 9L17 10L18 10L18 9ZM20 9L20 11L21 11L21 9ZM5 12L5 13L7 13L7 12ZM13 12L13 13L14 13L14 14L15 14L15 13L14 13L14 12ZM12 14L12 15L13 15L13 16L15 16L15 15L13 15L13 14ZM8 16L8 18L9 18L9 21L13 21L13 18L12 18L12 17L11 17L11 16L10 16L10 17L11 17L11 20L10 20L10 18L9 18L9 16ZM16 16L16 17L17 17L17 16ZM14 18L14 19L15 19L15 18ZM19 19L19 20L20 20L20 19ZM0 0L0 7L7 7L7 0ZM1 1L1 6L6 6L6 1ZM2 2L2 5L5 5L5 2ZM14 0L14 7L21 7L21 0ZM15 1L15 6L20 6L20 1ZM16 2L16 5L19 5L19 2ZM0 14L0 21L7 21L7 14ZM1 15L1 20L6 20L6 15ZM2 16L2 19L5 19L5 16Z" fill="#000000"/></g></g></svg>
