<?xml version="1.0" encoding="UTF-8"?>
<svg xmlns="http://www.w3.org/2000/svg" version="1.1" width="500" height="500" viewBox="0 0 500 500"><g transform="scale(23.81)"><g transform="translate(0,0)"><path fill-rule="evenodd" d="M10 0L10 1L8 1L8 7L9 7L9 8L5 8L5 9L9 9L9 12L8 12L8 10L4 10L4 9L3 9L3 8L2 8L2 9L3 9L3 11L1 11L1 10L0 10L0 11L1 11L1 13L3 13L3 11L5 11L5 12L4 12L4 13L5 13L5 12L6 12L6 13L7 13L7 12L8 12L8 16L9 16L9 17L10 17L10 18L8 18L8 19L9 19L9 20L10 20L10 21L11 21L11 20L12 20L12 21L13 21L13 20L12 20L12 18L11 18L11 16L9 16L9 12L10 12L10 13L11 13L11 15L13 15L13 14L12 14L12 13L14 13L14 12L12 12L12 11L15 11L15 10L13 10L13 9L14 9L14 8L13 8L13 6L12 6L12 5L13 5L13 3L12 3L12 2L13 2L13 1L12 1L12 0ZM10 1L10 2L11 2L11 1ZM9 3L9 7L10 7L10 5L11 5L11 4L12 4L12 3L11 3L11 4L10 4L10 3ZM11 6L11 7L12 7L12 6ZM10 8L10 9L11 9L11 8ZM15 8L15 9L20 9L20 8ZM10 10L10 11L12 11L12 10ZM17 10L17 11L16 11L16 12L17 12L17 14L16 14L16 13L15 13L15 14L14 14L14 15L15 15L15 17L14 17L14 18L15 18L15 17L21 17L21 16L19 16L19 15L20 15L20 13L21 13L21 11L20 11L20 10ZM6 11L6 12L7 12L7 11ZM17 11L17 12L20 12L20 11ZM11 12L11 13L12 13L12 12ZM18 14L18 15L19 15L19 14ZM16 15L16 16L17 16L17 15ZM10 18L10 19L11 19L11 18ZM18 18L18 19L19 19L19 20L18 20L18 21L21 21L21 20L20 20L20 19L21 19L21 18ZM14 19L14 21L15 21L15 19ZM16 19L16 20L17 20L17 19ZM0 0L0 7L7 7L7 0ZM1 1L1 6L6 6L6 1ZM2 2L2 5L5 5L5 2ZM14 0L14 7L21 7L21 0ZM15 1L15 6L20 6L20 1ZM16 2L16 5L19 5L19 2ZM0 14L0 21L7 21L7 14ZM1 15L1 20L6 20L6 15ZM2 16L2 19L5 19L5 16Z" fill="#000000"/></g></g></svg>
