<?xml version="1.0" encoding="UTF-8"?>
<svg xmlns="http://www.w3.org/2000/svg" version="1.1" width="500" height="500" viewBox="0 0 500 500"><g transform="scale(23.81)"><g transform="translate(0,0)"><path fill-rule="evenodd" d="M10 0L10 1L9 1L9 2L8 2L8 4L9 4L9 6L8 6L8 7L9 7L9 6L10 6L10 7L11 7L11 6L12 6L12 9L10 9L10 8L9 8L9 9L8 9L8 8L6 8L6 9L5 9L5 8L3 8L3 11L4 11L4 12L2 12L2 10L1 10L1 9L0 9L0 10L1 10L1 11L0 11L0 13L5 13L5 12L6 12L6 13L8 13L8 15L11 15L11 16L14 16L14 17L16 17L16 18L18 18L18 20L17 20L17 19L16 19L16 20L17 20L17 21L20 21L20 20L21 20L21 18L19 18L19 16L18 16L18 15L17 15L17 14L18 14L18 13L20 13L20 14L19 14L19 15L20 15L20 17L21 17L21 11L19 11L19 8L17 8L17 9L16 9L16 11L17 11L17 14L16 14L16 13L15 13L15 12L14 12L14 11L15 11L15 9L13 9L13 6L12 6L12 5L13 5L13 4L12 4L12 2L13 2L13 0ZM10 3L10 4L11 4L11 5L12 5L12 4L11 4L11 3ZM6 9L6 10L7 10L7 11L6 11L6 12L7 12L7 11L8 11L8 10L7 10L7 9ZM12 9L12 10L13 10L13 11L14 11L14 10L13 10L13 9ZM17 9L17 10L18 10L18 9ZM20 9L20 10L21 10L21 9ZM4 10L4 11L5 11L5 10ZM9 10L9 13L10 13L10 14L11 14L11 15L14 15L14 14L15 14L15 13L13 13L13 12L12 12L12 11L10 11L10 10ZM10 12L10 13L11 13L11 14L13 14L13 13L11 13L11 12ZM8 16L8 18L9 18L9 17L10 17L10 16ZM16 16L16 17L17 17L17 16ZM11 17L11 18L10 18L10 20L11 20L11 21L13 21L13 20L14 20L14 21L15 21L15 19L14 19L14 18L13 18L13 20L11 20L11 18L12 18L12 17ZM19 19L19 20L20 20L20 19ZM0 0L0 7L7 7L7 0ZM1 1L1 6L6 6L6 1ZM2 2L2 5L5 5L5 2ZM14 0L14 7L21 7L21 0ZM15 1L15 6L20 6L20 1ZM16 2L16 5L19 5L19 2ZM0 14L0 21L7 21L7 14ZM1 15L1 20L6 20L6 15ZM2 16L2 19L5 19L5 16Z" fill="#000000"/></g></g></svg>
