<?xml version="1.0" encoding="UTF-8"?>
<svg xmlns="http://www.w3.org/2000/svg" version="1.1" width="500" height="500" viewBox="0 0 500 500"><g transform="scale(23.81)"><g transform="translate(0,0)"><path fill-rule="evenodd" d="M9 0L9 1L12 1L12 3L11 3L11 4L10 4L10 7L9 7L9 6L8 6L8 7L9 7L9 8L10 8L10 9L8 9L8 8L6 8L6 9L7 9L7 10L2 10L2 9L1 9L1 10L0 10L0 12L1 12L1 13L4 13L4 12L5 12L5 13L8 13L8 15L10 15L10 16L11 16L11 17L10 17L10 18L9 18L9 16L8 16L8 18L9 18L9 19L11 19L11 21L12 21L12 19L15 19L15 17L16 17L16 18L18 18L18 20L17 20L17 19L16 19L16 20L17 20L17 21L20 21L20 20L21 20L21 18L19 18L19 16L18 16L18 15L17 15L17 14L18 14L18 13L19 13L19 8L17 8L17 9L16 9L16 11L17 11L17 14L16 14L16 13L15 13L15 11L14 11L14 12L12 12L12 10L10 10L10 9L11 9L11 8L10 8L10 7L11 7L11 6L12 6L12 7L13 7L13 6L12 6L12 4L13 4L13 1L12 1L12 0ZM8 2L8 4L9 4L9 3L10 3L10 2ZM3 8L3 9L5 9L5 8ZM12 8L12 9L13 9L13 8ZM17 9L17 10L18 10L18 9ZM20 9L20 11L21 11L21 9ZM1 10L1 11L2 11L2 10ZM7 10L7 11L5 11L5 12L8 12L8 13L9 13L9 14L11 14L11 13L9 13L9 12L11 12L11 11L10 11L10 10ZM3 11L3 12L4 12L4 11ZM20 12L20 14L19 14L19 15L20 15L20 17L21 17L21 12ZM14 13L14 15L15 15L15 13ZM12 14L12 15L13 15L13 14ZM12 16L12 17L11 17L11 19L12 19L12 18L14 18L14 17L15 17L15 16ZM16 16L16 17L17 17L17 16ZM19 19L19 20L20 20L20 19ZM9 20L9 21L10 21L10 20ZM14 20L14 21L15 21L15 20ZM0 0L0 7L7 7L7 0ZM1 1L1 6L6 6L6 1ZM2 2L2 5L5 5L5 2ZM14 0L14 7L21 7L21 0ZM15 1L15 6L20 6L20 1ZM16 2L16 5L19 5L19 2ZM0 14L0 21L7 21L7 14ZM1 15L1 20L6 20L6 15ZM2 16L2 19L5 19L5 16Z" fill="#000000"/></g></g></svg>
