<?xml version="1.0" encoding="UTF-8"?>
<svg xmlns="http://www.w3.org/2000/svg" version="1.1" width="500" height="500" viewBox="0 0 500 500"><g transform="scale(23.81)"><g transform="translate(0,0)"><path fill-rule="evenodd" d="M9 0L9 4L8 4L8 5L9 5L9 6L8 6L8 8L6 8L6 9L7 9L7 10L4 10L4 11L5 11L5 12L4 12L4 13L5 13L5 12L6 12L6 13L7 13L7 12L6 12L6 11L7 11L7 10L8 10L8 12L9 12L9 13L8 13L8 15L10 15L10 16L9 16L9 17L8 17L8 19L9 19L9 17L10 17L10 18L11 18L11 19L10 19L10 20L9 20L9 21L16 21L16 20L17 20L17 21L18 21L18 19L19 19L19 21L20 21L20 20L21 20L21 19L19 19L19 18L20 18L20 17L21 17L21 16L20 16L20 17L19 17L19 18L17 18L17 17L18 17L18 15L21 15L21 13L20 13L20 11L19 11L19 12L18 12L18 15L17 15L17 14L16 14L16 13L17 13L17 12L16 12L16 13L15 13L15 11L18 11L18 10L19 10L19 9L18 9L18 10L16 10L16 9L17 9L17 8L16 8L16 9L15 9L15 8L13 8L13 1L12 1L12 0ZM10 1L10 2L11 2L11 3L10 3L10 4L11 4L11 3L12 3L12 1ZM10 5L10 6L9 6L9 8L10 8L10 9L11 9L11 10L12 10L12 5ZM10 6L10 8L11 8L11 6ZM2 8L2 10L3 10L3 9L4 9L4 8ZM13 9L13 11L14 11L14 9ZM0 11L0 12L1 12L1 13L3 13L3 11L2 11L2 12L1 12L1 11ZM9 11L9 12L10 12L10 11ZM11 11L11 12L12 12L12 11ZM9 13L9 14L10 14L10 15L13 15L13 16L14 16L14 17L11 17L11 16L10 16L10 17L11 17L11 18L12 18L12 19L13 19L13 20L14 20L14 19L15 19L15 20L16 20L16 17L17 17L17 15L16 15L16 14L15 14L15 16L14 16L14 14L13 14L13 13ZM14 17L14 18L15 18L15 17ZM0 0L0 7L7 7L7 0ZM1 1L1 6L6 6L6 1ZM2 2L2 5L5 5L5 2ZM14 0L14 7L21 7L21 0ZM15 1L15 6L20 6L20 1ZM16 2L16 5L19 5L19 2ZM0 14L0 21L7 21L7 14ZM1 15L1 20L6 20L6 15ZM2 16L2 19L5 19L5 16Z" fill="#000000"/></g></g></svg>
