<?xml version="1.0" encoding="UTF-8"?>
<svg xmlns="http://www.w3.org/2000/svg" version="1.1" width="500" height="500" viewBox="0 0 500 500"><g transform="scale(23.81)"><g transform="translate(0,0)"><path fill-rule="evenodd" d="M9 0L9 1L10 1L10 2L8 2L8 4L9 4L9 6L8 6L8 7L9 7L9 6L10 6L10 9L8 9L8 8L6 8L6 9L5 9L5 8L3 8L3 9L1 9L1 10L2 10L2 11L0 11L0 13L3 13L3 12L2 12L2 11L4 11L4 12L5 12L5 13L7 13L7 12L6 12L6 11L7 11L7 10L6 10L6 9L8 9L8 12L9 12L9 13L8 13L8 15L9 15L9 14L10 14L10 13L11 13L11 15L12 15L12 16L11 16L11 17L10 17L10 18L11 18L11 19L12 19L12 20L10 20L10 19L9 19L9 21L12 21L12 20L13 20L13 17L16 17L16 18L18 18L18 20L17 20L17 19L16 19L16 20L17 20L17 21L20 21L20 20L21 20L21 18L19 18L19 16L18 16L18 15L17 15L17 14L18 14L18 13L19 13L19 12L20 12L20 14L19 14L19 15L20 15L20 17L21 17L21 12L20 12L20 11L21 11L21 9L20 9L20 11L19 11L19 8L17 8L17 9L16 9L16 11L17 11L17 14L16 14L16 13L14 13L14 12L15 12L15 11L13 11L13 13L12 13L12 11L11 11L11 8L12 8L12 9L13 9L13 10L14 10L14 9L13 9L13 5L12 5L12 7L11 7L11 6L10 6L10 5L11 5L11 4L10 4L10 2L11 2L11 3L12 3L12 4L13 4L13 2L11 2L11 1L13 1L13 0ZM3 9L3 10L5 10L5 9ZM17 9L17 10L18 10L18 9ZM10 11L10 12L11 12L11 11ZM13 13L13 14L14 14L14 13ZM13 15L13 16L12 16L12 17L11 17L11 18L12 18L12 17L13 17L13 16L14 16L14 15ZM8 16L8 18L9 18L9 16ZM16 16L16 17L17 17L17 16ZM14 18L14 20L15 20L15 18ZM19 19L19 20L20 20L20 19ZM0 0L0 7L7 7L7 0ZM1 1L1 6L6 6L6 1ZM2 2L2 5L5 5L5 2ZM14 0L14 7L21 7L21 0ZM15 1L15 6L20 6L20 1ZM16 2L16 5L19 5L19 2ZM0 14L0 21L7 21L7 14ZM1 15L1 20L6 20L6 15ZM2 16L2 19L5 19L5 16Z" fill="#000000"/></g></g></svg>
