<?xml version="1.0" encoding="UTF-8"?>
<svg xmlns="http://www.w3.org/2000/svg" version="1.1" width="500" height="500" viewBox="0 0 500 500"><g transform="scale(23.81)"><g transform="translate(0,0)"><path fill-rule="evenodd" d="M10 0L10 1L11 1L11 3L10 3L10 2L8 2L8 4L9 4L9 6L8 6L8 7L9 7L9 8L10 8L10 9L9 9L9 12L8 12L8 11L7 11L7 10L8 10L8 8L6 8L6 9L7 9L7 10L4 10L4 9L5 9L5 8L3 8L3 9L1 9L1 10L0 10L0 12L2 12L2 13L7 13L7 12L8 12L8 15L9 15L9 14L11 14L11 15L10 15L10 16L11 16L11 17L9 17L9 16L8 16L8 18L9 18L9 21L10 21L10 20L13 20L13 21L15 21L15 19L14 19L14 18L15 18L15 17L16 17L16 18L18 18L18 20L17 20L17 19L16 19L16 20L17 20L17 21L20 21L20 20L21 20L21 18L19 18L19 16L18 16L18 15L17 15L17 14L18 14L18 13L19 13L19 8L17 8L17 9L16 9L16 11L17 11L17 14L16 14L16 13L15 13L15 12L14 12L14 11L13 11L13 12L10 12L10 9L11 9L11 10L12 10L12 9L13 9L13 4L12 4L12 2L13 2L13 1L12 1L12 0ZM9 3L9 4L10 4L10 6L9 6L9 7L10 7L10 6L11 6L11 7L12 7L12 6L11 6L11 4L10 4L10 3ZM14 9L14 10L15 10L15 9ZM17 9L17 10L18 10L18 9ZM20 9L20 14L19 14L19 15L20 15L20 17L21 17L21 9ZM2 10L2 12L3 12L3 11L4 11L4 12L5 12L5 11L4 11L4 10ZM6 11L6 12L7 12L7 11ZM9 12L9 13L10 13L10 12ZM13 13L13 14L12 14L12 15L11 15L11 16L12 16L12 17L11 17L11 18L10 18L10 19L11 19L11 18L12 18L12 19L13 19L13 20L14 20L14 19L13 19L13 18L14 18L14 17L13 17L13 15L15 15L15 14L14 14L14 13ZM16 16L16 17L17 17L17 16ZM19 19L19 20L20 20L20 19ZM0 0L0 7L7 7L7 0ZM1 1L1 6L6 6L6 1ZM2 2L2 5L5 5L5 2ZM14 0L14 7L21 7L21 0ZM15 1L15 6L20 6L20 1ZM16 2L16 5L19 5L19 2ZM0 14L0 21L7 21L7 14ZM1 15L1 20L6 20L6 15ZM2 16L2 19L5 19L5 16Z" fill="#000000"/></g></g></svg>
