<?xml version="1.0" encoding="UTF-8"?>
<svg xmlns="http://www.w3.org/2000/svg" version="1.1" width="500" height="500" viewBox="0 0 500 500"><g transform="scale(23.81)"><g transform="translate(0,0)"><path fill-rule="evenodd" d="M8 0L8 1L10 1L10 0ZM11 0L11 2L9 2L9 3L8 3L8 4L10 4L10 5L9 5L9 6L8 6L8 7L9 7L9 8L8 8L8 9L9 9L9 10L8 10L8 11L7 11L7 10L6 10L6 9L7 9L7 8L4 8L4 9L3 9L3 8L2 8L2 9L0 9L0 12L1 12L1 11L4 11L4 9L5 9L5 10L6 10L6 11L5 11L5 12L3 12L3 13L5 13L5 12L6 12L6 13L8 13L8 14L9 14L9 13L10 13L10 16L9 16L9 15L8 15L8 17L11 17L11 18L12 18L12 19L11 19L11 20L9 20L9 21L11 21L11 20L12 20L12 19L13 19L13 21L14 21L14 20L15 20L15 21L16 21L16 20L17 20L17 21L19 21L19 20L18 20L18 19L19 19L19 18L20 18L20 19L21 19L21 18L20 18L20 17L21 17L21 16L20 16L20 15L18 15L18 17L17 17L17 16L16 16L16 17L15 17L15 15L13 15L13 14L15 14L15 13L16 13L16 12L18 12L18 14L19 14L19 13L21 13L21 11L19 11L19 10L20 10L20 9L21 9L21 8L20 8L20 9L19 9L19 10L18 10L18 8L17 8L17 10L18 10L18 11L16 11L16 9L15 9L15 10L14 10L14 8L13 8L13 10L14 10L14 11L15 11L15 13L14 13L14 12L13 12L13 11L12 11L12 10L11 10L11 9L12 9L12 7L13 7L13 6L12 6L12 5L13 5L13 1L12 1L12 0ZM11 3L11 5L10 5L10 6L9 6L9 7L10 7L10 9L11 9L11 7L12 7L12 6L11 6L11 5L12 5L12 3ZM10 6L10 7L11 7L11 6ZM2 9L2 10L3 10L3 9ZM9 10L9 12L8 12L8 13L9 13L9 12L10 12L10 13L11 13L11 15L12 15L12 14L13 14L13 13L11 13L11 12L12 12L12 11L10 11L10 10ZM6 11L6 12L7 12L7 11ZM18 11L18 12L19 12L19 11ZM16 14L16 15L17 15L17 14ZM11 16L11 17L12 17L12 18L13 18L13 19L15 19L15 18L14 18L14 16ZM19 16L19 17L18 17L18 18L19 18L19 17L20 17L20 16ZM16 17L16 19L17 19L17 17ZM8 18L8 19L10 19L10 18ZM20 20L20 21L21 21L21 20ZM0 0L0 7L7 7L7 0ZM1 1L1 6L6 6L6 1ZM2 2L2 5L5 5L5 2ZM14 0L14 7L21 7L21 0ZM15 1L15 6L20 6L20 1ZM16 2L16 5L19 5L19 2ZM0 14L0 21L7 21L7 14ZM1 15L1 20L6 20L6 15ZM2 16L2 19L5 19L5 16Z" fill="#000000"/></g></g></svg>
