<?xml version="1.0" encoding="UTF-8"?>
<svg xmlns="http://www.w3.org/2000/svg" version="1.1" width="500" height="500" viewBox="0 0 500 500"><g transform="scale(23.81)"><g transform="translate(0,0)"><path fill-rule="evenodd" d="M9 0L9 1L10 1L10 2L9 2L9 4L8 4L8 5L9 5L9 6L8 6L8 8L6 8L6 9L5 9L5 10L4 10L4 12L3 12L3 13L5 13L5 11L8 11L8 10L9 10L9 12L8 12L8 15L11 15L11 16L12 16L12 17L11 17L11 18L10 18L10 16L9 16L9 17L8 17L8 19L9 19L9 18L10 18L10 19L11 19L11 20L12 20L12 19L13 19L13 20L14 20L14 21L16 21L16 20L17 20L17 21L18 21L18 19L19 19L19 21L20 21L20 20L21 20L21 19L19 19L19 18L20 18L20 17L21 17L21 16L20 16L20 17L19 17L19 18L17 18L17 17L18 17L18 15L19 15L19 13L20 13L20 15L21 15L21 13L20 13L20 12L21 12L21 10L20 10L20 9L18 9L18 10L16 10L16 9L17 9L17 8L16 8L16 9L15 9L15 8L13 8L13 3L12 3L12 2L13 2L13 0L12 0L12 2L11 2L11 1L10 1L10 0ZM10 3L10 4L11 4L11 5L12 5L12 3ZM9 6L9 7L10 7L10 6ZM11 6L11 7L12 7L12 6ZM2 8L2 9L0 9L0 10L2 10L2 11L0 11L0 12L2 12L2 11L3 11L3 10L2 10L2 9L4 9L4 8ZM10 8L10 9L9 9L9 10L10 10L10 9L12 9L12 11L13 11L13 12L15 12L15 13L14 13L14 14L15 14L15 18L13 18L13 19L14 19L14 20L16 20L16 17L17 17L17 15L18 15L18 12L19 12L19 10L18 10L18 11L14 11L14 10L15 10L15 9L13 9L13 8ZM6 9L6 10L7 10L7 9ZM6 12L6 13L7 13L7 12ZM16 12L16 13L15 13L15 14L16 14L16 15L17 15L17 14L16 14L16 13L17 13L17 12ZM9 13L9 14L11 14L11 13ZM12 13L12 15L13 15L13 17L14 17L14 15L13 15L13 13ZM11 18L11 19L12 19L12 18ZM9 20L9 21L10 21L10 20ZM0 0L0 7L7 7L7 0ZM1 1L1 6L6 6L6 1ZM2 2L2 5L5 5L5 2ZM14 0L14 7L21 7L21 0ZM15 1L15 6L20 6L20 1ZM16 2L16 5L19 5L19 2ZM0 14L0 21L7 21L7 14ZM1 15L1 20L6 20L6 15ZM2 16L2 19L5 19L5 16Z" fill="#000000"/></g></g></svg>
