<?xml version="1.0" encoding="UTF-8"?>
<svg xmlns="http://www.w3.org/2000/svg" version="1.1" width="500" height="500" viewBox="0 0 500 500"><g transform="scale(23.81)"><g transform="translate(0,0)"><path fill-rule="evenodd" d="M10 0L10 1L9 1L9 2L8 2L8 4L9 4L9 6L8 6L8 7L9 7L9 6L10 6L10 7L11 7L11 8L9 8L9 9L10 9L10 10L9 10L9 11L8 11L8 8L6 8L6 9L7 9L7 10L5 10L5 8L3 8L3 9L1 9L1 11L0 11L0 12L1 12L1 11L2 11L2 10L3 10L3 9L4 9L4 10L5 10L5 12L4 12L4 11L3 11L3 13L5 13L5 12L6 12L6 13L7 13L7 12L6 12L6 11L8 11L8 15L9 15L9 13L10 13L10 17L9 17L9 16L8 16L8 18L10 18L10 19L9 19L9 20L10 20L10 21L11 21L11 20L10 20L10 19L11 19L11 18L10 18L10 17L11 17L11 16L12 16L12 19L13 19L13 20L12 20L12 21L13 21L13 20L15 20L15 19L13 19L13 18L15 18L15 17L16 17L16 18L18 18L18 20L17 20L17 19L16 19L16 20L17 20L17 21L20 21L20 20L21 20L21 18L19 18L19 16L18 16L18 15L17 15L17 14L18 14L18 13L19 13L19 14L20 14L20 17L21 17L21 10L19 10L19 8L17 8L17 9L16 9L16 11L17 11L17 14L16 14L16 13L15 13L15 11L14 11L14 12L13 12L13 13L12 13L12 11L13 11L13 10L11 10L11 8L12 8L12 9L13 9L13 6L12 6L12 5L13 5L13 3L12 3L12 2L13 2L13 1L12 1L12 0ZM10 1L10 2L9 2L9 3L10 3L10 4L11 4L11 5L12 5L12 4L11 4L11 3L10 3L10 2L11 2L11 1ZM11 6L11 7L12 7L12 6ZM14 9L14 10L15 10L15 9ZM17 9L17 10L18 10L18 9ZM19 11L19 13L20 13L20 11ZM11 13L11 15L13 15L13 14L12 14L12 13ZM14 13L14 14L15 14L15 13ZM14 15L14 16L13 16L13 17L14 17L14 16L15 16L15 15ZM16 16L16 17L17 17L17 16ZM19 19L19 20L20 20L20 19ZM0 0L0 7L7 7L7 0ZM1 1L1 6L6 6L6 1ZM2 2L2 5L5 5L5 2ZM14 0L14 7L21 7L21 0ZM15 1L15 6L20 6L20 1ZM16 2L16 5L19 5L19 2ZM0 14L0 21L7 21L7 14ZM1 15L1 20L6 20L6 15ZM2 16L2 19L5 19L5 16Z" fill="#000000"/></g></g></svg>
