<?xml version="1.0" encoding="UTF-8"?>
<svg xmlns="http://www.w3.org/2000/svg" version="1.1" width="500" height="500" viewBox="0 0 500 500"><g transform="scale(23.81)"><g transform="translate(0,0)"><path fill-rule="evenodd" d="M9 0L9 1L10 1L10 2L12 2L12 3L13 3L13 2L12 2L12 1L11 1L11 0ZM8 2L8 4L9 4L9 6L8 6L8 7L9 7L9 6L10 6L10 7L11 7L11 6L10 6L10 3L9 3L9 2ZM12 4L12 7L13 7L13 4ZM3 8L3 9L0 9L0 10L3 10L3 11L0 11L0 12L1 12L1 13L2 13L2 12L3 12L3 13L4 13L4 12L5 12L5 13L8 13L8 15L9 15L9 16L8 16L8 18L9 18L9 19L11 19L11 21L14 21L14 20L15 20L15 18L14 18L14 17L16 17L16 18L18 18L18 20L17 20L17 19L16 19L16 20L17 20L17 21L20 21L20 20L21 20L21 18L19 18L19 16L18 16L18 15L17 15L17 14L18 14L18 13L19 13L19 14L20 14L20 17L21 17L21 11L20 11L20 13L19 13L19 8L17 8L17 9L16 9L16 11L17 11L17 14L16 14L16 13L15 13L15 12L14 12L14 11L15 11L15 9L13 9L13 11L12 11L12 13L10 13L10 14L12 14L12 15L11 15L11 16L10 16L10 15L9 15L9 12L11 12L11 11L8 11L8 12L6 12L6 11L7 11L7 10L6 10L6 11L5 11L5 10L4 10L4 9L5 9L5 8ZM6 8L6 9L8 9L8 10L10 10L10 9L11 9L11 10L12 10L12 8L9 8L9 9L8 9L8 8ZM17 9L17 10L18 10L18 9ZM20 9L20 10L21 10L21 9ZM13 12L13 16L15 16L15 13L14 13L14 12ZM11 16L11 17L9 17L9 18L11 18L11 17L12 17L12 18L13 18L13 17L12 17L12 16ZM16 16L16 17L17 17L17 16ZM12 19L12 20L13 20L13 19ZM19 19L19 20L20 20L20 19ZM9 20L9 21L10 21L10 20ZM0 0L0 7L7 7L7 0ZM1 1L1 6L6 6L6 1ZM2 2L2 5L5 5L5 2ZM14 0L14 7L21 7L21 0ZM15 1L15 6L20 6L20 1ZM16 2L16 5L19 5L19 2ZM0 14L0 21L7 21L7 14ZM1 15L1 20L6 20L6 15ZM2 16L2 19L5 19L5 16Z" fill="#000000"/></g></g></svg>
