<?xml version="1.0" encoding="UTF-8"?>
<svg xmlns="http://www.w3.org/2000/svg" version="1.1" width="500" height="500" viewBox="0 0 500 500"><g transform="scale(23.81)"><g transform="translate(0,0)"><path fill-rule="evenodd" d="M8 0L8 2L9 2L9 3L8 3L8 7L9 7L9 5L10 5L10 7L11 7L11 6L12 6L12 8L13 8L13 6L12 6L12 4L13 4L13 3L12 3L12 2L13 2L13 0L11 0L11 2L9 2L9 1L10 1L10 0ZM9 3L9 4L11 4L11 3ZM3 8L3 9L0 9L0 11L1 11L1 12L0 12L0 13L1 13L1 12L2 12L2 13L4 13L4 12L5 12L5 13L8 13L8 14L9 14L9 15L10 15L10 14L14 14L14 15L15 15L15 13L16 13L16 15L18 15L18 17L19 17L19 18L17 18L17 20L18 20L18 21L19 21L19 20L20 20L20 19L21 19L21 16L20 16L20 15L21 15L21 14L19 14L19 13L21 13L21 12L20 12L20 10L18 10L18 8L15 8L15 9L13 9L13 10L12 10L12 9L9 9L9 12L5 12L5 11L8 11L8 9L7 9L7 8L6 8L6 9L7 9L7 10L5 10L5 9L4 9L4 8ZM19 8L19 9L21 9L21 8ZM3 9L3 10L2 10L2 11L3 11L3 12L4 12L4 9ZM16 9L16 10L17 10L17 12L16 12L16 13L17 13L17 14L18 14L18 15L19 15L19 14L18 14L18 12L19 12L19 11L18 11L18 10L17 10L17 9ZM10 10L10 11L12 11L12 12L11 12L11 13L12 13L12 12L13 12L13 11L14 11L14 13L15 13L15 10L13 10L13 11L12 11L12 10ZM9 16L9 17L8 17L8 18L9 18L9 17L11 17L11 18L13 18L13 17L12 17L12 16ZM14 16L14 18L15 18L15 19L14 19L14 21L16 21L16 17L15 17L15 16ZM19 18L19 19L18 19L18 20L19 20L19 19L20 19L20 18ZM9 19L9 21L10 21L10 19ZM11 20L11 21L12 21L12 20ZM0 0L0 7L7 7L7 0ZM1 1L1 6L6 6L6 1ZM2 2L2 5L5 5L5 2ZM14 0L14 7L21 7L21 0ZM15 1L15 6L20 6L20 1ZM16 2L16 5L19 5L19 2ZM0 14L0 21L7 21L7 14ZM1 15L1 20L6 20L6 15ZM2 16L2 19L5 19L5 16Z" fill="#000000"/></g></g></svg>
