<?xml version="1.0" encoding="UTF-8"?>
<svg xmlns="http://www.w3.org/2000/svg" version="1.1" width="500" height="500" viewBox="0 0 500 500"><g transform="scale(23.81)"><g transform="translate(0,0)"><path fill-rule="evenodd" d="M9 0L9 1L11 1L11 2L9 2L9 4L8 4L8 5L9 5L9 6L8 6L8 8L6 8L6 9L11 9L11 11L12 11L12 10L13 10L13 11L18 11L18 10L19 10L19 9L18 9L18 10L16 10L16 9L17 9L17 8L16 8L16 9L15 9L15 8L12 8L12 7L13 7L13 6L12 6L12 7L11 7L11 6L10 6L10 5L11 5L11 4L12 4L12 3L11 3L11 2L12 2L12 0ZM9 4L9 5L10 5L10 4ZM9 6L9 8L11 8L11 7L10 7L10 6ZM2 8L2 10L1 10L1 9L0 9L0 13L3 13L3 12L2 12L2 11L4 11L4 12L5 12L5 11L4 11L4 10L5 10L5 9L4 9L4 8ZM13 9L13 10L14 10L14 9ZM20 9L20 10L21 10L21 9ZM6 10L6 11L7 11L7 12L6 12L6 13L7 13L7 12L8 12L8 15L9 15L9 17L8 17L8 19L9 19L9 21L11 21L11 19L12 19L12 21L14 21L14 20L15 20L15 21L16 21L16 20L17 20L17 21L18 21L18 19L19 19L19 21L20 21L20 20L21 20L21 19L19 19L19 18L20 18L20 17L21 17L21 16L20 16L20 17L19 17L19 18L17 18L17 17L18 17L18 15L19 15L19 13L20 13L20 15L21 15L21 13L20 13L20 12L21 12L21 11L19 11L19 12L18 12L18 15L17 15L17 14L16 14L16 13L17 13L17 12L16 12L16 13L15 13L15 14L13 14L13 13L12 13L12 12L10 12L10 14L9 14L9 12L8 12L8 11L7 11L7 10ZM10 14L10 17L12 17L12 19L13 19L13 16L15 16L15 17L14 17L14 19L15 19L15 20L16 20L16 17L17 17L17 15L16 15L16 14L15 14L15 15L13 15L13 14ZM11 15L11 16L13 16L13 15ZM10 18L10 19L11 19L11 18ZM0 0L0 7L7 7L7 0ZM1 1L1 6L6 6L6 1ZM2 2L2 5L5 5L5 2ZM14 0L14 7L21 7L21 0ZM15 1L15 6L20 6L20 1ZM16 2L16 5L19 5L19 2ZM0 14L0 21L7 21L7 14ZM1 15L1 20L6 20L6 15ZM2 16L2 19L5 19L5 16Z" fill="#000000"/></g></g></svg>
