<?xml version="1.0" encoding="UTF-8"?>
<svg xmlns="http://www.w3.org/2000/svg" version="1.1" width="500" height="500" viewBox="0 0 500 500"><g transform="scale(23.81)"><g transform="translate(0,0)"><path fill-rule="evenodd" d="M10 0L10 1L8 1L8 7L9 7L9 8L5 8L5 9L4 9L4 12L3 12L3 10L2 10L2 9L3 9L3 8L2 8L2 9L0 9L0 12L2 12L2 13L5 13L5 10L6 10L6 11L7 11L7 12L6 12L6 13L7 13L7 12L8 12L8 10L6 10L6 9L9 9L9 8L12 8L12 7L13 7L13 6L12 6L12 7L11 7L11 4L13 4L13 3L12 3L12 1L13 1L13 0L12 0L12 1L11 1L11 0ZM10 1L10 2L9 2L9 5L10 5L10 4L11 4L11 1ZM9 6L9 7L10 7L10 6ZM13 8L13 9L12 9L12 10L14 10L14 8ZM15 8L15 9L19 9L19 10L17 10L17 11L16 11L16 12L17 12L17 14L16 14L16 13L14 13L14 12L15 12L15 11L14 11L14 12L13 12L13 13L14 13L14 15L13 15L13 16L14 16L14 17L21 17L21 16L19 16L19 15L18 15L18 14L19 14L19 12L17 12L17 11L20 11L20 13L21 13L21 11L20 11L20 10L21 10L21 9L20 9L20 8ZM1 10L1 11L2 11L2 10ZM9 10L9 12L10 12L10 13L11 13L11 14L12 14L12 12L10 12L10 11L11 11L11 10ZM8 13L8 16L9 16L9 17L10 17L10 18L8 18L8 19L9 19L9 21L11 21L11 20L12 20L12 21L14 21L14 20L15 20L15 19L13 19L13 18L12 18L12 19L11 19L11 20L10 20L10 18L11 18L11 16L12 16L12 15L10 15L10 16L9 16L9 13ZM16 15L16 16L17 16L17 15ZM18 18L18 19L19 19L19 20L18 20L18 21L21 21L21 20L20 20L20 19L21 19L21 18ZM12 19L12 20L13 20L13 19ZM16 19L16 20L17 20L17 19ZM0 0L0 7L7 7L7 0ZM1 1L1 6L6 6L6 1ZM2 2L2 5L5 5L5 2ZM14 0L14 7L21 7L21 0ZM15 1L15 6L20 6L20 1ZM16 2L16 5L19 5L19 2ZM0 14L0 21L7 21L7 14ZM1 15L1 20L6 20L6 15ZM2 16L2 19L5 19L5 16Z" fill="#000000"/></g></g></svg>
