<?xml version="1.0" encoding="UTF-8"?>
<svg xmlns="http://www.w3.org/2000/svg" version="1.1" width="500" height="500" viewBox="0 0 500 500"><g transform="scale(23.81)"><g transform="translate(0,0)"><path fill-rule="evenodd" d="M8 0L8 1L9 1L9 2L10 2L10 3L8 3L8 4L10 4L10 5L9 5L9 6L8 6L8 7L9 7L9 6L10 6L10 8L8 8L8 9L10 9L10 10L6 10L6 9L7 9L7 8L4 8L4 9L3 9L3 8L2 8L2 10L6 10L6 11L5 11L5 13L8 13L8 14L11 14L11 15L13 15L13 16L10 16L10 15L8 15L8 17L9 17L9 18L8 18L8 19L9 19L9 21L12 21L12 20L14 20L14 21L16 21L16 20L17 20L17 21L19 21L19 20L18 20L18 19L19 19L19 18L20 18L20 19L21 19L21 18L20 18L20 17L21 17L21 16L20 16L20 13L21 13L21 11L20 11L20 9L21 9L21 8L20 8L20 9L19 9L19 10L18 10L18 8L17 8L17 10L18 10L18 11L16 11L16 9L14 9L14 8L13 8L13 4L12 4L12 3L13 3L13 2L11 2L11 1L12 1L12 0ZM10 3L10 4L11 4L11 3ZM11 5L11 7L12 7L12 5ZM10 8L10 9L13 9L13 10L12 10L12 11L11 11L11 10L10 10L10 12L9 12L9 13L11 13L11 14L12 14L12 13L11 13L11 12L12 12L12 11L14 11L14 9L13 9L13 8ZM0 9L0 10L1 10L1 9ZM2 11L2 12L0 12L0 13L3 13L3 12L4 12L4 11ZM6 11L6 12L8 12L8 11ZM18 11L18 12L16 12L16 13L15 13L15 12L13 12L13 13L14 13L14 14L13 14L13 15L15 15L15 17L16 17L16 19L17 19L17 17L18 17L18 18L19 18L19 17L20 17L20 16L19 16L19 17L18 17L18 15L19 15L19 14L18 14L18 12L19 12L19 11ZM16 14L16 15L17 15L17 14ZM9 16L9 17L10 17L10 18L9 18L9 19L10 19L10 20L12 20L12 18L13 18L13 19L15 19L15 18L14 18L14 17L10 17L10 16ZM16 16L16 17L17 17L17 16ZM10 18L10 19L11 19L11 18ZM20 20L20 21L21 21L21 20ZM0 0L0 7L7 7L7 0ZM1 1L1 6L6 6L6 1ZM2 2L2 5L5 5L5 2ZM14 0L14 7L21 7L21 0ZM15 1L15 6L20 6L20 1ZM16 2L16 5L19 5L19 2ZM0 14L0 21L7 21L7 14ZM1 15L1 20L6 20L6 15ZM2 16L2 19L5 19L5 16Z" fill="#000000"/></g></g></svg>
