<?xml version="1.0" encoding="UTF-8"?>
<svg xmlns="http://www.w3.org/2000/svg" version="1.1" width="500" height="500" viewBox="0 0 500 500"><g transform="scale(23.81)"><g transform="translate(0,0)"><path fill-rule="evenodd" d="M8 0L8 3L9 3L9 4L10 4L10 5L8 5L8 9L7 9L7 8L6 8L6 9L5 9L5 8L2 8L2 9L3 9L3 10L2 10L2 11L3 11L3 12L1 12L1 9L0 9L0 12L1 12L1 13L3 13L3 12L4 12L4 13L5 13L5 10L6 10L6 11L8 11L8 12L9 12L9 13L8 13L8 14L9 14L9 16L8 16L8 19L9 19L9 21L10 21L10 20L12 20L12 21L13 21L13 19L11 19L11 17L12 17L12 18L16 18L16 19L15 19L15 20L14 20L14 21L15 21L15 20L16 20L16 21L19 21L19 20L20 20L20 19L19 19L19 16L18 16L18 15L17 15L17 16L18 16L18 18L16 18L16 16L15 16L15 17L14 17L14 14L13 14L13 12L14 12L14 11L15 11L15 12L16 12L16 13L17 13L17 14L18 14L18 13L20 13L20 12L21 12L21 10L20 10L20 9L21 9L21 8L18 8L18 13L17 13L17 10L16 10L16 8L13 8L13 9L9 9L9 8L10 8L10 7L11 7L11 8L12 8L12 7L13 7L13 6L12 6L12 4L13 4L13 3L12 3L12 2L13 2L13 0ZM9 1L9 2L10 2L10 1ZM11 1L11 2L12 2L12 1ZM11 3L11 4L12 4L12 3ZM9 6L9 7L10 7L10 6ZM11 6L11 7L12 7L12 6ZM6 9L6 10L7 10L7 9ZM8 9L8 11L9 11L9 12L10 12L10 14L11 14L11 15L13 15L13 14L12 14L12 12L13 12L13 11L14 11L14 10L15 10L15 11L16 11L16 10L15 10L15 9L13 9L13 11L12 11L12 10L11 10L11 11L12 11L12 12L10 12L10 10L9 10L9 9ZM19 11L19 12L20 12L20 11ZM6 12L6 13L7 13L7 12ZM15 14L15 15L16 15L16 14ZM19 14L19 15L21 15L21 14ZM9 16L9 18L10 18L10 17L11 17L11 16ZM12 16L12 17L13 17L13 16ZM17 19L17 20L18 20L18 19ZM0 0L0 7L7 7L7 0ZM1 1L1 6L6 6L6 1ZM2 2L2 5L5 5L5 2ZM14 0L14 7L21 7L21 0ZM15 1L15 6L20 6L20 1ZM16 2L16 5L19 5L19 2ZM0 14L0 21L7 21L7 14ZM1 15L1 20L6 20L6 15ZM2 16L2 19L5 19L5 16Z" fill="#000000"/></g></g></svg>
