<?xml version="1.0" encoding="UTF-8"?>
<svg xmlns="http://www.w3.org/2000/svg" version="1.1" width="500" height="500" viewBox="0 0 500 500"><g transform="scale(23.81)"><g transform="translate(0,0)"><path fill-rule="evenodd" d="M8 0L8 3L9 3L9 4L10 4L10 5L8 5L8 10L10 10L10 12L9 12L9 11L8 11L8 14L9 14L9 13L10 13L10 16L11 16L11 17L10 17L10 18L9 18L9 16L8 16L8 19L9 19L9 21L11 21L11 20L12 20L12 21L13 21L13 20L14 20L14 21L15 21L15 20L16 20L16 21L19 21L19 20L20 20L20 19L19 19L19 16L18 16L18 15L17 15L17 16L18 16L18 18L16 18L16 16L15 16L15 17L14 17L14 19L13 19L13 20L12 20L12 18L13 18L13 16L14 16L14 15L13 15L13 13L14 13L14 14L15 14L15 15L16 15L16 14L15 14L15 13L14 13L14 12L13 12L13 11L12 11L12 13L10 13L10 12L11 12L11 10L10 10L10 7L11 7L11 9L12 9L12 10L14 10L14 9L15 9L15 10L16 10L16 11L15 11L15 12L16 12L16 13L17 13L17 14L18 14L18 13L19 13L19 9L21 9L21 8L18 8L18 13L17 13L17 10L16 10L16 8L13 8L13 5L12 5L12 4L13 4L13 3L12 3L12 2L13 2L13 1L12 1L12 0L11 0L11 3L10 3L10 2L9 2L9 0ZM11 3L11 4L12 4L12 3ZM10 5L10 6L9 6L9 7L10 7L10 6L11 6L11 7L12 7L12 5ZM2 8L2 9L3 9L3 10L1 10L1 9L0 9L0 11L2 11L2 13L3 13L3 12L4 12L4 13L7 13L7 12L5 12L5 11L7 11L7 10L6 10L6 9L7 9L7 8L6 8L6 9L5 9L5 8ZM4 10L4 11L5 11L5 10ZM20 10L20 11L21 11L21 10ZM0 12L0 13L1 13L1 12ZM20 12L20 15L21 15L21 12ZM11 14L11 16L13 16L13 15L12 15L12 14ZM11 17L11 18L10 18L10 19L11 19L11 18L12 18L12 17ZM15 18L15 19L14 19L14 20L15 20L15 19L16 19L16 18ZM17 19L17 20L18 20L18 19ZM0 0L0 7L7 7L7 0ZM1 1L1 6L6 6L6 1ZM2 2L2 5L5 5L5 2ZM14 0L14 7L21 7L21 0ZM15 1L15 6L20 6L20 1ZM16 2L16 5L19 5L19 2ZM0 14L0 21L7 21L7 14ZM1 15L1 20L6 20L6 15ZM2 16L2 19L5 19L5 16Z" fill="#000000"/></g></g></svg>
