<?xml version="1.0" encoding="UTF-8"?>
<svg xmlns="http://www.w3.org/2000/svg" version="1.1" width="500" height="500" viewBox="0 0 500 500"><g transform="scale(23.81)"><g transform="translate(0,0)"><path fill-rule="evenodd" d="M11 0L11 1L10 1L10 2L11 2L11 6L10 6L10 7L11 7L11 8L13 8L13 9L12 9L12 10L13 10L13 13L14 13L14 15L13 15L13 14L12 14L12 13L10 13L10 12L9 12L9 11L10 11L10 10L11 10L11 9L10 9L10 8L5 8L5 9L7 9L7 10L6 10L6 11L5 11L5 10L4 10L4 9L3 9L3 8L2 8L2 9L1 9L1 10L2 10L2 11L5 11L5 12L6 12L6 13L7 13L7 12L8 12L8 16L9 16L9 13L10 13L10 14L12 14L12 15L10 15L10 17L9 17L9 18L8 18L8 19L9 19L9 20L10 20L10 18L11 18L11 21L13 21L13 20L12 20L12 19L13 19L13 18L14 18L14 16L15 16L15 17L21 17L21 16L19 16L19 15L20 15L20 14L21 14L21 13L20 13L20 11L21 11L21 10L17 10L17 11L16 11L16 12L17 12L17 14L16 14L16 13L15 13L15 12L14 12L14 10L13 10L13 9L14 9L14 8L13 8L13 5L12 5L12 3L13 3L13 2L11 2L11 1L13 1L13 0ZM8 1L8 7L9 7L9 5L10 5L10 3L9 3L9 1ZM11 6L11 7L12 7L12 6ZM15 8L15 9L20 9L20 8ZM8 9L8 10L9 10L9 9ZM6 11L6 12L7 12L7 11ZM17 11L17 12L19 12L19 11ZM2 12L2 13L3 13L3 12ZM19 13L19 14L18 14L18 15L19 15L19 14L20 14L20 13ZM16 15L16 16L17 16L17 15ZM11 16L11 17L12 17L12 18L13 18L13 17L12 17L12 16ZM18 18L18 19L19 19L19 20L18 20L18 21L21 21L21 20L20 20L20 19L21 19L21 18ZM16 19L16 20L17 20L17 19ZM14 20L14 21L15 21L15 20ZM0 0L0 7L7 7L7 0ZM1 1L1 6L6 6L6 1ZM2 2L2 5L5 5L5 2ZM14 0L14 7L21 7L21 0ZM15 1L15 6L20 6L20 1ZM16 2L16 5L19 5L19 2ZM0 14L0 21L7 21L7 14ZM1 15L1 20L6 20L6 15ZM2 16L2 19L5 19L5 16Z" fill="#000000"/></g></g></svg>
