<?xml version="1.0" encoding="UTF-8"?>
<svg xmlns="http://www.w3.org/2000/svg" version="1.1" width="500" height="500" viewBox="0 0 500 500"><g transform="scale(23.81)"><g transform="translate(0,0)"><path fill-rule="evenodd" d="M9 0L9 2L8 2L8 4L9 4L9 6L8 6L8 7L9 7L9 6L10 6L10 8L9 8L9 9L8 9L8 8L6 8L6 9L5 9L5 8L3 8L3 10L2 10L2 11L3 11L3 12L4 12L4 13L5 13L5 11L3 11L3 10L4 10L4 9L5 9L5 10L6 10L6 11L7 11L7 12L6 12L6 13L7 13L7 12L8 12L8 15L9 15L9 16L8 16L8 18L9 18L9 21L10 21L10 18L9 18L9 16L10 16L10 15L11 15L11 16L12 16L12 17L11 17L11 21L13 21L13 19L15 19L15 17L16 17L16 18L18 18L18 20L17 20L17 19L16 19L16 20L17 20L17 21L20 21L20 20L21 20L21 18L19 18L19 16L18 16L18 15L17 15L17 14L18 14L18 13L19 13L19 15L20 15L20 17L21 17L21 14L20 14L20 12L21 12L21 11L20 11L20 12L19 12L19 8L17 8L17 9L16 9L16 11L17 11L17 14L16 14L16 13L15 13L15 10L14 10L14 9L13 9L13 8L12 8L12 9L11 9L11 6L12 6L12 7L13 7L13 6L12 6L12 5L13 5L13 4L12 4L12 5L11 5L11 6L10 6L10 4L11 4L11 2L10 2L10 1L11 1L11 0ZM12 1L12 3L13 3L13 1ZM9 3L9 4L10 4L10 3ZM0 9L0 11L1 11L1 9ZM6 9L6 10L7 10L7 11L8 11L8 9ZM9 9L9 10L10 10L10 11L9 11L9 14L11 14L11 15L12 15L12 14L11 14L11 13L10 13L10 12L12 12L12 11L14 11L14 10L10 10L10 9ZM17 9L17 10L18 10L18 9ZM20 9L20 10L21 10L21 9ZM0 12L0 13L1 13L1 12ZM13 12L13 15L15 15L15 14L14 14L14 12ZM14 16L14 17L13 17L13 18L14 18L14 17L15 17L15 16ZM16 16L16 17L17 17L17 16ZM19 19L19 20L20 20L20 19ZM14 20L14 21L15 21L15 20ZM0 0L0 7L7 7L7 0ZM1 1L1 6L6 6L6 1ZM2 2L2 5L5 5L5 2ZM14 0L14 7L21 7L21 0ZM15 1L15 6L20 6L20 1ZM16 2L16 5L19 5L19 2ZM0 14L0 21L7 21L7 14ZM1 15L1 20L6 20L6 15ZM2 16L2 19L5 19L5 16Z" fill="#000000"/></g></g></svg>
