<?xml version="1.0" encoding="UTF-8"?>
<svg xmlns="http://www.w3.org/2000/svg" version="1.1" width="500" height="500" viewBox="0 0 500 500"><g transform="scale(23.81)"><g transform="translate(0,0)"><path fill-rule="evenodd" d="M8 0L8 2L9 2L9 0ZM10 0L10 1L11 1L11 2L10 2L10 3L11 3L11 2L12 2L12 5L11 5L11 6L10 6L10 4L9 4L9 3L8 3L8 7L9 7L9 6L10 6L10 9L9 9L9 11L8 11L8 10L6 10L6 9L7 9L7 8L6 8L6 9L4 9L4 8L3 8L3 9L4 9L4 10L2 10L2 9L1 9L1 11L0 11L0 12L1 12L1 13L2 13L2 11L4 11L4 10L5 10L5 11L8 11L8 14L9 14L9 15L10 15L10 14L11 14L11 17L10 17L10 16L9 16L9 17L8 17L8 18L9 18L9 20L10 20L10 21L11 21L11 20L12 20L12 21L14 21L14 19L15 19L15 21L16 21L16 17L15 17L15 16L14 16L14 15L15 15L15 13L16 13L16 15L18 15L18 17L19 17L19 18L17 18L17 20L18 20L18 21L19 21L19 20L20 20L20 19L21 19L21 16L20 16L20 15L21 15L21 13L20 13L20 15L18 15L18 14L19 14L19 12L18 12L18 14L17 14L17 13L16 13L16 12L17 12L17 10L18 10L18 11L20 11L20 9L21 9L21 8L19 8L19 10L18 10L18 8L15 8L15 9L13 9L13 8L11 8L11 6L12 6L12 7L13 7L13 6L12 6L12 5L13 5L13 0ZM11 9L11 10L10 10L10 11L9 11L9 12L10 12L10 11L12 11L12 12L11 12L11 14L12 14L12 16L13 16L13 14L14 14L14 13L15 13L15 11L14 11L14 13L13 13L13 9ZM16 9L16 10L17 10L17 9ZM4 12L4 13L7 13L7 12ZM9 13L9 14L10 14L10 13ZM11 17L11 18L12 18L12 17ZM19 18L19 19L18 19L18 20L19 20L19 19L20 19L20 18ZM0 0L0 7L7 7L7 0ZM1 1L1 6L6 6L6 1ZM2 2L2 5L5 5L5 2ZM14 0L14 7L21 7L21 0ZM15 1L15 6L20 6L20 1ZM16 2L16 5L19 5L19 2ZM0 14L0 21L7 21L7 14ZM1 15L1 20L6 20L6 15ZM2 16L2 19L5 19L5 16Z" fill="#000000"/></g></g></svg>
