<?xml version="1.0" encoding="UTF-8"?>
<svg xmlns="http://www.w3.org/2000/svg" version="1.1" width="500" height="500" viewBox="0 0 500 500"><g transform="scale(23.81)"><g transform="translate(0,0)"><path fill-rule="evenodd" d="M8 0L8 3L9 3L9 5L8 5L8 9L7 9L7 8L6 8L6 9L5 9L5 8L2 8L2 9L1 9L1 10L0 10L0 11L3 11L3 10L4 10L4 11L5 11L5 12L0 12L0 13L5 13L5 12L6 12L6 13L7 13L7 12L6 12L6 11L7 11L7 10L8 10L8 9L9 9L9 10L10 10L10 9L11 9L11 8L12 8L12 11L13 11L13 12L11 12L11 11L10 11L10 12L9 12L9 11L8 11L8 14L10 14L10 16L8 16L8 19L9 19L9 20L11 20L11 21L12 21L12 17L13 17L13 15L12 15L12 14L15 14L15 15L16 15L16 14L15 14L15 12L16 12L16 13L17 13L17 14L18 14L18 13L20 13L20 15L21 15L21 12L19 12L19 9L21 9L21 8L18 8L18 13L17 13L17 10L16 10L16 8L12 8L12 7L13 7L13 5L12 5L12 4L13 4L13 3L11 3L11 2L12 2L12 0L11 0L11 2L10 2L10 1L9 1L9 0ZM10 3L10 5L9 5L9 7L10 7L10 8L9 8L9 9L10 9L10 8L11 8L11 7L12 7L12 6L11 6L11 3ZM10 6L10 7L11 7L11 6ZM2 9L2 10L3 10L3 9ZM4 9L4 10L5 10L5 9ZM6 9L6 10L7 10L7 9ZM14 9L14 10L13 10L13 11L14 11L14 12L15 12L15 11L16 11L16 10L15 10L15 9ZM14 10L14 11L15 11L15 10ZM10 12L10 14L11 14L11 12ZM11 15L11 16L10 16L10 19L11 19L11 17L12 17L12 15ZM17 15L17 16L18 16L18 18L16 18L16 16L14 16L14 18L13 18L13 19L14 19L14 20L13 20L13 21L14 21L14 20L16 20L16 21L19 21L19 20L20 20L20 19L19 19L19 16L18 16L18 15ZM15 18L15 19L16 19L16 18ZM17 19L17 20L18 20L18 19ZM0 0L0 7L7 7L7 0ZM1 1L1 6L6 6L6 1ZM2 2L2 5L5 5L5 2ZM14 0L14 7L21 7L21 0ZM15 1L15 6L20 6L20 1ZM16 2L16 5L19 5L19 2ZM0 14L0 21L7 21L7 14ZM1 15L1 20L6 20L6 15ZM2 16L2 19L5 19L5 16Z" fill="#000000"/></g></g></svg>
