<?xml version="1.0" encoding="UTF-8"?>
<svg xmlns="http://www.w3.org/2000/svg" version="1.1" width="500" height="500" viewBox="0 0 500 500"><g transform="scale(23.81)"><g transform="translate(0,0)"><path fill-rule="evenodd" d="M8 0L8 1L10 1L10 0ZM11 1L11 2L9 2L9 3L8 3L8 4L10 4L10 5L9 5L9 6L8 6L8 7L9 7L9 6L10 6L10 8L8 8L8 10L9 10L9 11L11 11L11 12L12 12L12 13L13 13L13 14L12 14L12 15L11 15L11 14L10 14L10 13L9 13L9 12L8 12L8 14L10 14L10 15L8 15L8 17L9 17L9 18L8 18L8 19L9 19L9 20L10 20L10 19L11 19L11 21L12 21L12 20L13 20L13 19L14 19L14 18L15 18L15 20L14 20L14 21L16 21L16 20L17 20L17 21L19 21L19 20L18 20L18 19L19 19L19 18L20 18L20 19L21 19L21 18L20 18L20 17L21 17L21 16L20 16L20 15L18 15L18 17L17 17L17 16L16 16L16 17L14 17L14 16L15 16L15 15L14 15L14 13L16 13L16 12L18 12L18 14L21 14L21 13L20 13L20 11L19 11L19 10L20 10L20 9L21 9L21 8L20 8L20 9L19 9L19 10L18 10L18 8L17 8L17 10L18 10L18 11L16 11L16 9L15 9L15 10L14 10L14 11L15 11L15 12L14 12L14 13L13 13L13 9L14 9L14 8L13 8L13 6L12 6L12 7L11 7L11 5L12 5L12 4L11 4L11 2L12 2L12 3L13 3L13 2L12 2L12 1ZM2 8L2 9L0 9L0 11L1 11L1 12L0 12L0 13L1 13L1 12L2 12L2 13L4 13L4 12L5 12L5 11L7 11L7 10L5 10L5 9L7 9L7 8L4 8L4 10L2 10L2 9L3 9L3 8ZM11 8L11 9L9 9L9 10L11 10L11 11L12 11L12 10L11 10L11 9L13 9L13 8ZM4 10L4 11L2 11L2 12L4 12L4 11L5 11L5 10ZM18 11L18 12L19 12L19 11ZM6 12L6 13L7 13L7 12ZM16 14L16 15L17 15L17 14ZM10 15L10 16L9 16L9 17L10 17L10 18L11 18L11 17L12 17L12 18L14 18L14 17L12 17L12 16L14 16L14 15L12 15L12 16L11 16L11 15ZM10 16L10 17L11 17L11 16ZM19 16L19 17L18 17L18 18L19 18L19 17L20 17L20 16ZM16 17L16 19L17 19L17 17ZM20 20L20 21L21 21L21 20ZM0 0L0 7L7 7L7 0ZM1 1L1 6L6 6L6 1ZM2 2L2 5L5 5L5 2ZM14 0L14 7L21 7L21 0ZM15 1L15 6L20 6L20 1ZM16 2L16 5L19 5L19 2ZM0 14L0 21L7 21L7 14ZM1 15L1 20L6 20L6 15ZM2 16L2 19L5 19L5 16Z" fill="#000000"/></g></g></svg>
