<?xml version="1.0" encoding="UTF-8"?>
<svg xmlns="http://www.w3.org/2000/svg" version="1.1" width="500" height="500" viewBox="0 0 500 500"><g transform="scale(23.81)"><g transform="translate(0,0)"><path fill-rule="evenodd" d="M8 0L8 1L9 1L9 2L11 2L11 4L9 4L9 3L8 3L8 4L9 4L9 6L8 6L8 7L9 7L9 6L10 6L10 8L8 8L8 9L7 9L7 8L4 8L4 9L3 9L3 8L2 8L2 10L1 10L1 9L0 9L0 10L1 10L1 11L0 11L0 12L1 12L1 13L2 13L2 12L3 12L3 13L4 13L4 12L3 12L3 11L4 11L4 9L5 9L5 12L6 12L6 13L8 13L8 14L9 14L9 13L8 13L8 11L7 11L7 10L8 10L8 9L9 9L9 10L10 10L10 11L9 11L9 12L10 12L10 13L12 13L12 12L13 12L13 14L10 14L10 15L13 15L13 14L14 14L14 13L16 13L16 12L18 12L18 14L21 14L21 13L20 13L20 12L18 12L18 11L19 11L19 10L20 10L20 11L21 11L21 10L20 10L20 9L21 9L21 8L20 8L20 9L19 9L19 10L18 10L18 8L17 8L17 10L18 10L18 11L16 11L16 9L15 9L15 12L14 12L14 11L13 11L13 10L14 10L14 8L12 8L12 7L13 7L13 5L11 5L11 4L12 4L12 2L11 2L11 1L13 1L13 0ZM11 6L11 7L12 7L12 6ZM10 8L10 9L12 9L12 10L13 10L13 9L12 9L12 8ZM6 9L6 10L7 10L7 9ZM2 10L2 11L3 11L3 10ZM6 11L6 12L7 12L7 11ZM16 14L16 15L17 15L17 14ZM8 15L8 17L9 17L9 18L8 18L8 19L10 19L10 20L9 20L9 21L10 21L10 20L11 20L11 21L12 21L12 19L10 19L10 17L11 17L11 16L10 16L10 17L9 17L9 15ZM18 15L18 17L17 17L17 16L16 16L16 17L15 17L15 16L12 16L12 17L13 17L13 18L14 18L14 17L15 17L15 21L16 21L16 20L17 20L17 21L19 21L19 20L18 20L18 19L19 19L19 18L20 18L20 19L21 19L21 18L20 18L20 17L21 17L21 16L20 16L20 15ZM19 16L19 17L18 17L18 18L19 18L19 17L20 17L20 16ZM16 17L16 19L17 19L17 17ZM13 19L13 21L14 21L14 19ZM20 20L20 21L21 21L21 20ZM0 0L0 7L7 7L7 0ZM1 1L1 6L6 6L6 1ZM2 2L2 5L5 5L5 2ZM14 0L14 7L21 7L21 0ZM15 1L15 6L20 6L20 1ZM16 2L16 5L19 5L19 2ZM0 14L0 21L7 21L7 14ZM1 15L1 20L6 20L6 15ZM2 16L2 19L5 19L5 16Z" fill="#000000"/></g></g></svg>
