<?xml version="1.0" encoding="UTF-8"?>
<svg xmlns="http://www.w3.org/2000/svg" version="1.1" width="500" height="500" viewBox="0 0 500 500"><g transform="scale(23.81)"><g transform="translate(0,0)"><path fill-rule="evenodd" d="M9 0L9 1L11 1L11 0ZM8 2L8 4L9 4L9 3L10 3L10 2ZM11 2L11 4L10 4L10 5L11 5L11 4L12 4L12 5L13 5L13 4L12 4L12 3L13 3L13 2ZM8 6L8 7L9 7L9 6ZM10 6L10 8L11 8L11 9L10 9L10 10L8 10L8 8L6 8L6 9L5 9L5 8L3 8L3 10L2 10L2 9L1 9L1 10L0 10L0 11L1 11L1 10L2 10L2 12L0 12L0 13L2 13L2 12L3 12L3 13L7 13L7 12L8 12L8 15L9 15L9 16L8 16L8 18L9 18L9 20L10 20L10 21L11 21L11 20L13 20L13 21L14 21L14 20L15 20L15 17L16 17L16 18L18 18L18 20L17 20L17 19L16 19L16 20L17 20L17 21L20 21L20 20L21 20L21 18L19 18L19 16L18 16L18 15L17 15L17 14L18 14L18 13L19 13L19 15L20 15L20 17L21 17L21 14L20 14L20 13L19 13L19 8L17 8L17 9L16 9L16 11L17 11L17 14L16 14L16 13L13 13L13 12L12 12L12 13L11 13L11 12L10 12L10 13L9 13L9 11L11 11L11 10L12 10L12 11L13 11L13 10L14 10L14 9L13 9L13 6L12 6L12 8L11 8L11 6ZM6 9L6 10L5 10L5 11L3 11L3 12L5 12L5 11L6 11L6 12L7 12L7 11L8 11L8 10L7 10L7 9ZM17 9L17 10L18 10L18 9ZM20 9L20 12L21 12L21 9ZM6 10L6 11L7 11L7 10ZM14 11L14 12L15 12L15 11ZM12 14L12 16L14 16L14 15L15 15L15 14ZM10 15L10 17L11 17L11 18L10 18L10 20L11 20L11 18L13 18L13 19L14 19L14 17L11 17L11 15ZM16 16L16 17L17 17L17 16ZM19 19L19 20L20 20L20 19ZM0 0L0 7L7 7L7 0ZM1 1L1 6L6 6L6 1ZM2 2L2 5L5 5L5 2ZM14 0L14 7L21 7L21 0ZM15 1L15 6L20 6L20 1ZM16 2L16 5L19 5L19 2ZM0 14L0 21L7 21L7 14ZM1 15L1 20L6 20L6 15ZM2 16L2 19L5 19L5 16Z" fill="#000000"/></g></g></svg>
