<?xml version="1.0" encoding="UTF-8"?>
<svg xmlns="http://www.w3.org/2000/svg" version="1.1" width="500" height="500" viewBox="0 0 500 500"><g transform="scale(23.81)"><g transform="translate(0,0)"><path fill-rule="evenodd" d="M9 0L9 1L8 1L8 7L9 7L9 8L5 8L5 9L4 9L4 10L3 10L3 8L2 8L2 10L1 10L1 9L0 9L0 11L2 11L2 13L3 13L3 11L4 11L4 10L6 10L6 11L8 11L8 9L9 9L9 11L10 11L10 9L11 9L11 10L12 10L12 11L11 11L11 13L8 13L8 16L9 16L9 18L8 18L8 19L9 19L9 21L10 21L10 20L11 20L11 21L12 21L12 20L11 20L11 19L12 19L12 18L11 18L11 19L9 19L9 18L10 18L10 17L13 17L13 18L14 18L14 19L13 19L13 20L14 20L14 21L15 21L15 17L21 17L21 16L19 16L19 15L20 15L20 14L21 14L21 13L20 13L20 14L19 14L19 12L17 12L17 11L20 11L20 12L21 12L21 11L20 11L20 10L17 10L17 11L16 11L16 12L17 12L17 14L16 14L16 13L15 13L15 9L20 9L20 8L15 8L15 9L14 9L14 8L13 8L13 9L11 9L11 8L12 8L12 7L13 7L13 3L11 3L11 2L12 2L12 0L11 0L11 2L10 2L10 0ZM9 2L9 5L10 5L10 6L9 6L9 7L10 7L10 8L9 8L9 9L10 9L10 8L11 8L11 7L12 7L12 6L11 6L11 5L12 5L12 4L11 4L11 3L10 3L10 2ZM10 6L10 7L11 7L11 6ZM6 9L6 10L7 10L7 9ZM2 10L2 11L3 11L3 10ZM13 11L13 12L14 12L14 11ZM0 12L0 13L1 13L1 12ZM4 12L4 13L7 13L7 12ZM12 13L12 14L13 14L13 13ZM9 14L9 16L11 16L11 14ZM14 14L14 15L15 15L15 14ZM18 14L18 15L19 15L19 14ZM16 15L16 16L17 16L17 15ZM18 18L18 19L19 19L19 20L18 20L18 21L21 21L21 20L20 20L20 19L21 19L21 18ZM16 19L16 20L17 20L17 19ZM0 0L0 7L7 7L7 0ZM1 1L1 6L6 6L6 1ZM2 2L2 5L5 5L5 2ZM14 0L14 7L21 7L21 0ZM15 1L15 6L20 6L20 1ZM16 2L16 5L19 5L19 2ZM0 14L0 21L7 21L7 14ZM1 15L1 20L6 20L6 15ZM2 16L2 19L5 19L5 16Z" fill="#000000"/></g></g></svg>
