<?xml version="1.0" encoding="UTF-8"?>
<svg xmlns="http://www.w3.org/2000/svg" version="1.1" width="500" height="500" viewBox="0 0 500 500"><g transform="scale(23.81)"><g transform="translate(0,0)"><path fill-rule="evenodd" d="M8 0L8 2L10 2L10 3L8 3L8 7L9 7L9 5L10 5L10 9L11 9L11 10L10 10L10 13L12 13L12 11L15 11L15 13L13 13L13 14L14 14L14 15L15 15L15 13L16 13L16 15L18 15L18 17L19 17L19 18L17 18L17 20L18 20L18 21L19 21L19 20L20 20L20 19L21 19L21 16L20 16L20 15L21 15L21 11L20 11L20 9L21 9L21 8L19 8L19 10L18 10L18 8L15 8L15 10L13 10L13 9L11 9L11 8L12 8L12 7L13 7L13 6L12 6L12 7L11 7L11 5L12 5L12 3L11 3L11 2L12 2L12 1L13 1L13 0L11 0L11 2L10 2L10 1L9 1L9 0ZM10 3L10 5L11 5L11 3ZM3 8L3 9L4 9L4 8ZM6 8L6 9L5 9L5 10L4 10L4 11L2 11L2 12L1 12L1 13L2 13L2 12L3 12L3 13L4 13L4 12L5 12L5 13L7 13L7 12L5 12L5 10L6 10L6 11L8 11L8 12L9 12L9 11L8 11L8 10L6 10L6 9L7 9L7 8ZM1 9L1 10L0 10L0 11L1 11L1 10L2 10L2 9ZM16 9L16 10L17 10L17 12L16 12L16 13L17 13L17 14L18 14L18 15L20 15L20 14L18 14L18 12L19 12L19 13L20 13L20 11L18 11L18 10L17 10L17 9ZM11 10L11 11L12 11L12 10ZM8 13L8 14L9 14L9 15L10 15L10 16L9 16L9 17L8 17L8 18L9 18L9 21L10 21L10 20L12 20L12 19L13 19L13 21L14 21L14 20L15 20L15 21L16 21L16 17L14 17L14 16L13 16L13 18L11 18L11 19L10 19L10 17L11 17L11 16L12 16L12 14L9 14L9 13ZM19 18L19 19L18 19L18 20L19 20L19 19L20 19L20 18ZM0 0L0 7L7 7L7 0ZM1 1L1 6L6 6L6 1ZM2 2L2 5L5 5L5 2ZM14 0L14 7L21 7L21 0ZM15 1L15 6L20 6L20 1ZM16 2L16 5L19 5L19 2ZM0 14L0 21L7 21L7 14ZM1 15L1 20L6 20L6 15ZM2 16L2 19L5 19L5 16Z" fill="#000000"/></g></g></svg>
