<?xml version="1.0" encoding="UTF-8"?>
<svg xmlns="http://www.w3.org/2000/svg" version="1.1" width="500" height="500" viewBox="0 0 500 500"><g transform="scale(23.81)"><g transform="translate(0,0)"><path fill-rule="evenodd" d="M8 0L8 1L10 1L10 2L9 2L9 3L8 3L8 4L9 4L9 5L10 5L10 8L8 8L8 9L7 9L7 8L4 8L4 9L3 9L3 8L2 8L2 9L0 9L0 10L1 10L1 11L0 11L0 13L1 13L1 11L2 11L2 12L3 12L3 11L4 11L4 9L7 9L7 10L6 10L6 11L7 11L7 12L6 12L6 13L7 13L7 12L8 12L8 11L7 11L7 10L8 10L8 9L9 9L9 13L8 13L8 14L9 14L9 15L8 15L8 17L11 17L11 18L10 18L10 19L9 19L9 18L8 18L8 19L9 19L9 21L10 21L10 19L12 19L12 20L13 20L13 21L16 21L16 20L17 20L17 21L19 21L19 20L18 20L18 19L19 19L19 18L20 18L20 19L21 19L21 18L20 18L20 17L21 17L21 16L20 16L20 15L18 15L18 17L17 17L17 16L16 16L16 17L15 17L15 20L14 20L14 18L13 18L13 17L14 17L14 16L15 16L15 14L14 14L14 16L13 16L13 15L12 15L12 16L13 16L13 17L11 17L11 16L9 16L9 15L10 15L10 14L11 14L11 13L12 13L12 12L13 12L13 13L16 13L16 12L18 12L18 14L19 14L19 13L21 13L21 11L20 11L20 12L18 12L18 11L19 11L19 10L20 10L20 9L21 9L21 8L20 8L20 9L19 9L19 10L18 10L18 8L17 8L17 10L18 10L18 11L16 11L16 9L15 9L15 10L14 10L14 11L12 11L12 12L11 12L11 13L10 13L10 11L11 11L11 10L10 10L10 8L11 8L11 9L12 9L12 8L13 8L13 9L14 9L14 8L13 8L13 2L12 2L12 1L13 1L13 0L11 0L11 1L10 1L10 0ZM11 2L11 3L12 3L12 2ZM9 3L9 4L10 4L10 3ZM11 5L11 8L12 8L12 5ZM8 6L8 7L9 7L9 6ZM14 11L14 12L15 12L15 11ZM4 12L4 13L5 13L5 12ZM16 14L16 15L17 15L17 14ZM19 16L19 17L18 17L18 18L19 18L19 17L20 17L20 16ZM16 17L16 19L17 19L17 17ZM20 20L20 21L21 21L21 20ZM0 0L0 7L7 7L7 0ZM1 1L1 6L6 6L6 1ZM2 2L2 5L5 5L5 2ZM14 0L14 7L21 7L21 0ZM15 1L15 6L20 6L20 1ZM16 2L16 5L19 5L19 2ZM0 14L0 21L7 21L7 14ZM1 15L1 20L6 20L6 15ZM2 16L2 19L5 19L5 16Z" fill="#000000"/></g></g></svg>
