<?xml version="1.0" encoding="UTF-8"?>
<svg xmlns="http://www.w3.org/2000/svg" version="1.1" width="500" height="500" viewBox="0 0 500 500"><g transform="scale(23.81)"><g transform="translate(0,0)"><path fill-rule="evenodd" d="M9 0L9 1L8 1L8 7L9 7L9 8L5 8L5 9L3 9L3 8L2 8L2 10L0 10L0 12L1 12L1 13L3 13L3 11L4 11L4 12L5 12L5 11L4 11L4 10L5 10L5 9L7 9L7 10L6 10L6 11L7 11L7 12L6 12L6 13L7 13L7 12L8 12L8 16L9 16L9 13L10 13L10 11L11 11L11 12L12 12L12 13L11 13L11 14L10 14L10 16L11 16L11 17L12 17L12 18L11 18L11 19L13 19L13 18L14 18L14 15L15 15L15 17L21 17L21 16L19 16L19 15L20 15L20 12L17 12L17 11L21 11L21 10L17 10L17 11L16 11L16 12L17 12L17 14L16 14L16 13L15 13L15 14L14 14L14 13L13 13L13 12L14 12L14 10L15 10L15 9L20 9L20 8L15 8L15 9L14 9L14 8L13 8L13 5L12 5L12 8L11 8L11 5L10 5L10 7L9 7L9 4L13 4L13 0L12 0L12 1L11 1L11 2L12 2L12 3L10 3L10 0ZM9 8L9 9L10 9L10 10L11 10L11 11L12 11L12 12L13 12L13 11L12 11L12 10L14 10L14 9L11 9L11 8ZM7 10L7 11L8 11L8 12L9 12L9 10ZM1 11L1 12L2 12L2 11ZM12 13L12 14L11 14L11 15L14 15L14 14L13 14L13 13ZM18 14L18 15L19 15L19 14ZM16 15L16 16L17 16L17 15ZM9 17L9 18L8 18L8 19L9 19L9 20L10 20L10 19L9 19L9 18L10 18L10 17ZM18 18L18 19L19 19L19 20L18 20L18 21L21 21L21 20L20 20L20 19L21 19L21 18ZM14 19L14 21L15 21L15 19ZM16 19L16 20L17 20L17 19ZM11 20L11 21L12 21L12 20ZM0 0L0 7L7 7L7 0ZM1 1L1 6L6 6L6 1ZM2 2L2 5L5 5L5 2ZM14 0L14 7L21 7L21 0ZM15 1L15 6L20 6L20 1ZM16 2L16 5L19 5L19 2ZM0 14L0 21L7 21L7 14ZM1 15L1 20L6 20L6 15ZM2 16L2 19L5 19L5 16Z" fill="#000000"/></g></g></svg>
