<?xml version="1.0" encoding="UTF-8"?>
<svg xmlns="http://www.w3.org/2000/svg" version="1.1" width="500" height="500" viewBox="0 0 500 500"><g transform="scale(23.81)"><g transform="translate(0,0)"><path fill-rule="evenodd" d="M9 0L9 1L12 1L12 2L10 2L10 3L9 3L9 2L8 2L8 4L10 4L10 5L9 5L9 6L8 6L8 7L9 7L9 6L10 6L10 7L11 7L11 8L10 8L10 10L9 10L9 9L8 9L8 8L6 8L6 9L7 9L7 10L6 10L6 11L5 11L5 8L3 8L3 9L4 9L4 10L3 10L3 11L2 11L2 12L3 12L3 13L4 13L4 12L6 12L6 13L7 13L7 12L6 12L6 11L8 11L8 12L9 12L9 13L8 13L8 15L9 15L9 16L8 16L8 18L9 18L9 21L11 21L11 20L13 20L13 21L14 21L14 20L15 20L15 19L14 19L14 20L13 20L13 19L12 19L12 18L13 18L13 17L14 17L14 16L12 16L12 15L15 15L15 17L16 17L16 18L18 18L18 20L17 20L17 19L16 19L16 20L17 20L17 21L20 21L20 20L21 20L21 18L19 18L19 16L18 16L18 15L17 15L17 14L18 14L18 13L20 13L20 14L19 14L19 15L20 15L20 17L21 17L21 13L20 13L20 12L19 12L19 8L17 8L17 9L16 9L16 11L17 11L17 14L16 14L16 13L15 13L15 12L14 12L14 11L15 11L15 10L14 10L14 11L13 11L13 10L12 10L12 12L10 12L10 10L11 10L11 8L12 8L12 7L13 7L13 6L12 6L12 5L11 5L11 4L12 4L12 2L13 2L13 0ZM11 6L11 7L12 7L12 6ZM0 9L0 12L1 12L1 10L2 10L2 9ZM17 9L17 10L18 10L18 9ZM20 9L20 10L21 10L21 9ZM3 11L3 12L4 12L4 11ZM9 13L9 14L10 14L10 15L12 15L12 14L11 14L11 13ZM14 13L14 14L15 14L15 13ZM9 16L9 17L10 17L10 16ZM16 16L16 17L17 17L17 16ZM11 17L11 18L10 18L10 19L11 19L11 18L12 18L12 17ZM19 19L19 20L20 20L20 19ZM0 0L0 7L7 7L7 0ZM1 1L1 6L6 6L6 1ZM2 2L2 5L5 5L5 2ZM14 0L14 7L21 7L21 0ZM15 1L15 6L20 6L20 1ZM16 2L16 5L19 5L19 2ZM0 14L0 21L7 21L7 14ZM1 15L1 20L6 20L6 15ZM2 16L2 19L5 19L5 16Z" fill="#000000"/></g></g></svg>
