<?xml version="1.0" encoding="UTF-8"?>
<svg xmlns="http://www.w3.org/2000/svg" version="1.1" width="500" height="500" viewBox="0 0 500 500"><g transform="scale(23.81)"><g transform="translate(0,0)"><path fill-rule="evenodd" d="M8 0L8 2L9 2L9 0ZM11 0L11 1L12 1L12 0ZM11 2L11 3L8 3L8 7L9 7L9 9L7 9L7 8L6 8L6 9L7 9L7 10L5 10L5 9L4 9L4 8L3 8L3 9L4 9L4 11L3 11L3 10L2 10L2 9L1 9L1 11L0 11L0 13L1 13L1 12L2 12L2 13L3 13L3 12L5 12L5 13L7 13L7 12L6 12L6 11L7 11L7 10L8 10L8 11L9 11L9 12L8 12L8 14L9 14L9 12L10 12L10 10L12 10L12 11L11 11L11 13L10 13L10 14L11 14L11 13L12 13L12 11L13 11L13 13L14 13L14 14L12 14L12 15L11 15L11 16L10 16L10 15L9 15L9 17L8 17L8 18L9 18L9 17L11 17L11 16L12 16L12 17L13 17L13 16L14 16L14 17L15 17L15 20L13 20L13 18L10 18L10 19L9 19L9 21L12 21L12 20L13 20L13 21L16 21L16 17L15 17L15 16L14 16L14 15L15 15L15 13L16 13L16 15L18 15L18 17L19 17L19 18L17 18L17 20L18 20L18 21L19 21L19 20L20 20L20 19L21 19L21 16L20 16L20 15L21 15L21 14L20 14L20 13L19 13L19 12L18 12L18 14L17 14L17 13L16 13L16 12L17 12L17 10L18 10L18 11L20 11L20 12L21 12L21 10L20 10L20 9L21 9L21 8L19 8L19 10L18 10L18 8L15 8L15 9L14 9L14 10L12 10L12 9L13 9L13 8L11 8L11 6L12 6L12 7L13 7L13 6L12 6L12 5L11 5L11 4L13 4L13 2ZM9 4L9 7L10 7L10 6L11 6L11 5L10 5L10 4ZM10 8L10 9L9 9L9 10L10 10L10 9L11 9L11 8ZM16 9L16 10L17 10L17 9ZM14 10L14 11L15 11L15 10ZM18 14L18 15L20 15L20 14ZM19 18L19 19L18 19L18 20L19 20L19 19L20 19L20 18ZM11 19L11 20L12 20L12 19ZM0 0L0 7L7 7L7 0ZM1 1L1 6L6 6L6 1ZM2 2L2 5L5 5L5 2ZM14 0L14 7L21 7L21 0ZM15 1L15 6L20 6L20 1ZM16 2L16 5L19 5L19 2ZM0 14L0 21L7 21L7 14ZM1 15L1 20L6 20L6 15ZM2 16L2 19L5 19L5 16Z" fill="#000000"/></g></g></svg>
