<?xml version="1.0" encoding="UTF-8"?>
<svg xmlns="http://www.w3.org/2000/svg" version="1.1" width="500" height="500" viewBox="0 0 500 500"><g transform="scale(23.81)"><g transform="translate(0,0)"><path fill-rule="evenodd" d="M12 0L12 1L13 1L13 0ZM9 1L9 2L8 2L8 4L9 4L9 6L8 6L8 7L9 7L9 8L10 8L10 7L11 7L11 9L8 9L8 8L6 8L6 9L7 9L7 10L6 10L6 11L8 11L8 10L10 10L10 12L12 12L12 13L8 13L8 12L6 12L6 13L8 13L8 15L10 15L10 14L11 14L11 15L12 15L12 16L10 16L10 20L11 20L11 21L12 21L12 20L11 20L11 18L12 18L12 17L13 17L13 18L14 18L14 19L13 19L13 21L14 21L14 20L15 20L15 18L14 18L14 17L16 17L16 18L18 18L18 20L17 20L17 19L16 19L16 20L17 20L17 21L20 21L20 20L21 20L21 18L19 18L19 16L18 16L18 15L17 15L17 14L18 14L18 13L20 13L20 14L19 14L19 15L20 15L20 17L21 17L21 13L20 13L20 12L21 12L21 9L20 9L20 12L19 12L19 8L17 8L17 9L16 9L16 11L17 11L17 14L16 14L16 13L15 13L15 15L14 15L14 13L13 13L13 3L10 3L10 1ZM10 4L10 5L12 5L12 4ZM9 6L9 7L10 7L10 6ZM11 6L11 7L12 7L12 6ZM3 8L3 9L2 9L2 10L1 10L1 9L0 9L0 11L2 11L2 10L3 10L3 9L5 9L5 8ZM14 9L14 10L15 10L15 9ZM17 9L17 10L18 10L18 9ZM4 10L4 11L3 11L3 12L2 12L2 13L3 13L3 12L4 12L4 13L5 13L5 10ZM14 11L14 12L15 12L15 11ZM12 14L12 15L13 15L13 14ZM8 16L8 18L9 18L9 16ZM16 16L16 17L17 17L17 16ZM19 19L19 20L20 20L20 19ZM0 0L0 7L7 7L7 0ZM1 1L1 6L6 6L6 1ZM2 2L2 5L5 5L5 2ZM14 0L14 7L21 7L21 0ZM15 1L15 6L20 6L20 1ZM16 2L16 5L19 5L19 2ZM0 14L0 21L7 21L7 14ZM1 15L1 20L6 20L6 15ZM2 16L2 19L5 19L5 16Z" fill="#000000"/></g></g></svg>
