<?xml version="1.0" encoding="UTF-8"?>
<svg xmlns="http://www.w3.org/2000/svg" version="1.1" width="500" height="500" viewBox="0 0 500 500"><g transform="scale(23.81)"><g transform="translate(0,0)"><path fill-rule="evenodd" d="M8 0L8 2L9 2L9 3L8 3L8 7L9 7L9 9L8 9L8 11L9 11L9 12L8 12L8 14L9 14L9 15L11 15L11 16L9 16L9 17L8 17L8 18L10 18L10 19L9 19L9 20L10 20L10 21L11 21L11 19L12 19L12 20L13 20L13 21L14 21L14 20L15 20L15 21L16 21L16 17L15 17L15 14L14 14L14 13L16 13L16 15L18 15L18 17L19 17L19 18L17 18L17 20L18 20L18 21L19 21L19 20L20 20L20 19L21 19L21 16L20 16L20 15L21 15L21 14L20 14L20 13L19 13L19 12L20 12L20 9L21 9L21 8L19 8L19 10L18 10L18 8L15 8L15 10L14 10L14 9L12 9L12 11L13 11L13 12L12 12L12 13L13 13L13 14L9 14L9 13L11 13L11 10L10 10L10 9L11 9L11 8L12 8L12 7L13 7L13 6L12 6L12 7L11 7L11 5L13 5L13 4L11 4L11 3L13 3L13 2L11 2L11 0ZM12 0L12 1L13 1L13 0ZM9 3L9 5L11 5L11 4L10 4L10 3ZM9 6L9 7L10 7L10 8L11 8L11 7L10 7L10 6ZM3 8L3 9L4 9L4 8ZM6 8L6 9L5 9L5 10L2 10L2 11L1 11L1 10L0 10L0 11L1 11L1 12L3 12L3 11L4 11L4 13L7 13L7 12L6 12L6 11L7 11L7 10L6 10L6 9L7 9L7 8ZM16 9L16 10L17 10L17 12L16 12L16 13L17 13L17 14L18 14L18 15L20 15L20 14L18 14L18 12L19 12L19 11L18 11L18 10L17 10L17 9ZM14 11L14 12L13 12L13 13L14 13L14 12L15 12L15 11ZM12 15L12 16L11 16L11 17L10 17L10 18L11 18L11 17L12 17L12 18L13 18L13 17L12 17L12 16L13 16L13 15ZM19 18L19 19L18 19L18 20L19 20L19 19L20 19L20 18ZM0 0L0 7L7 7L7 0ZM1 1L1 6L6 6L6 1ZM2 2L2 5L5 5L5 2ZM14 0L14 7L21 7L21 0ZM15 1L15 6L20 6L20 1ZM16 2L16 5L19 5L19 2ZM0 14L0 21L7 21L7 14ZM1 15L1 20L6 20L6 15ZM2 16L2 19L5 19L5 16Z" fill="#000000"/></g></g></svg>
