<?xml version="1.0" encoding="UTF-8"?>
<svg xmlns="http://www.w3.org/2000/svg" version="1.1" width="500" height="500" viewBox="0 0 500 500"><g transform="scale(23.81)"><g transform="translate(0,0)"><path fill-rule="evenodd" d="M8 0L8 2L9 2L9 3L8 3L8 7L9 7L9 5L10 5L10 4L12 4L12 5L11 5L11 6L10 6L10 8L9 8L9 9L7 9L7 8L6 8L6 9L7 9L7 10L3 10L3 9L4 9L4 8L3 8L3 9L2 9L2 11L1 11L1 12L0 12L0 13L1 13L1 12L2 12L2 11L4 11L4 12L3 12L3 13L8 13L8 14L10 14L10 13L11 13L11 11L15 11L15 13L14 13L14 14L13 14L13 15L14 15L14 16L15 16L15 15L14 15L14 14L15 14L15 13L16 13L16 15L18 15L18 17L19 17L19 18L17 18L17 20L18 20L18 21L19 21L19 20L20 20L20 19L21 19L21 16L20 16L20 15L21 15L21 14L20 14L20 13L19 13L19 12L18 12L18 14L17 14L17 13L16 13L16 12L17 12L17 10L18 10L18 11L20 11L20 9L21 9L21 8L19 8L19 10L18 10L18 8L15 8L15 10L13 10L13 9L12 9L12 10L11 10L11 6L12 6L12 8L13 8L13 4L12 4L12 3L13 3L13 1L12 1L12 3L11 3L11 2L10 2L10 1L11 1L11 0ZM16 9L16 10L17 10L17 9ZM7 10L7 11L5 11L5 12L8 12L8 11L9 11L9 12L10 12L10 10ZM11 14L11 15L10 15L10 16L9 16L9 17L8 17L8 18L9 18L9 19L10 19L10 20L12 20L12 19L13 19L13 21L16 21L16 17L15 17L15 18L14 18L14 17L13 17L13 16L12 16L12 17L11 17L11 15L12 15L12 14ZM18 14L18 15L20 15L20 14ZM10 17L10 19L12 19L12 18L11 18L11 17ZM13 18L13 19L14 19L14 20L15 20L15 19L14 19L14 18ZM19 18L19 19L18 19L18 20L19 20L19 19L20 19L20 18ZM0 0L0 7L7 7L7 0ZM1 1L1 6L6 6L6 1ZM2 2L2 5L5 5L5 2ZM14 0L14 7L21 7L21 0ZM15 1L15 6L20 6L20 1ZM16 2L16 5L19 5L19 2ZM0 14L0 21L7 21L7 14ZM1 15L1 20L6 20L6 15ZM2 16L2 19L5 19L5 16Z" fill="#000000"/></g></g></svg>
